<svg width="110" height="42" viewBox="0 0 110 42" fill="none" xmlns="http://www.w3.org/2000/svg">
<path d="M107.205 20.2991H102.701L95.1694 8.86937V20.2991H90.666V1.67969H95.1694L102.701 13.2148V1.67969H107.205V20.2991Z" fill="white"/>
<path d="M88.502 1.67969V20.2991H83.9985V1.67969H88.502Z" fill="white"/>
<path d="M77.242 16.903H70.263L69.1042 20.3002H64.3638L71.1847 1.8125H76.373L83.1939 20.3002H78.4007L77.242 16.903ZM76.0832 13.4793L73.7657 6.63196L71.4217 13.4793H76.0832Z" fill="white"/>
<path d="M63.5425 1.8125V20.3002H59.0391V8.73884L55.036 20.3002H51.1382L47.1089 8.71249V20.3002H42.6055V1.8125H48.1096L53.1398 14.6908L58.0646 1.8125H63.5425Z" fill="white"/>
<path d="M109.569 32.1159C109.569 33.9419 109.174 35.5659 108.384 36.9881C107.612 38.3926 106.488 39.4899 105.013 40.28C103.556 41.0702 101.836 41.4652 99.8515 41.4652H92.8198V22.8457H99.8515C101.853 22.8457 103.583 23.2319 105.04 24.0045C106.497 24.777 107.612 25.8656 108.384 27.2701C109.174 28.6748 109.569 30.29 109.569 32.1159ZM99.4565 37.4357C101.212 37.4357 102.573 36.9705 103.539 36.0399C104.522 35.1095 105.013 33.8014 105.013 32.1159C105.013 30.4305 104.522 29.1224 103.539 28.1918C102.573 27.2614 101.212 26.796 99.4565 26.796H97.3233V37.4357H99.4565Z" fill="white"/>
<path d="M86.9608 41.4652L82.9315 34.4335H81.9043V41.4652H77.4009V22.8457H85.091C86.5658 22.8457 87.8124 23.1003 88.8307 23.6094C89.849 24.1186 90.6127 24.8209 91.1219 25.7163C91.6311 26.5942 91.8856 27.6037 91.8856 28.7449C91.8856 30.0968 91.5081 31.2469 90.7531 32.1949C90.0157 33.143 88.936 33.7926 87.5139 34.1438L91.9383 41.4652H86.9608ZM81.9043 31.3522H84.6959C85.5913 31.3522 86.2497 31.159 86.6712 30.7728C87.0925 30.369 87.3032 29.7808 87.3032 29.0083C87.3032 28.2709 87.0837 27.6915 86.6448 27.2701C86.2234 26.8488 85.5739 26.638 84.6959 26.638H81.9043V31.3522Z" fill="white"/>
<path d="M71.0203 38.065H64.0413L62.8826 41.4623H58.1421L64.963 22.9746H70.1513L76.9722 41.4623H72.179L71.0203 38.065ZM69.8615 34.6413L67.544 27.794L65.2001 34.6413H69.8615Z" fill="white"/>
<path d="M49.3823 22.6592C51.7526 22.6592 53.7102 23.2824 55.2553 24.529C56.8178 25.7755 57.8274 27.4611 58.2839 29.5856H53.5171C53.1659 28.7251 52.6217 28.0493 51.8843 27.5577C51.1645 27.066 50.304 26.8203 49.3033 26.8203C47.9865 26.8203 46.9244 27.3031 46.1167 28.2688C45.3091 29.2344 44.9052 30.5249 44.9052 32.1401C44.9052 33.7554 45.3091 35.0459 46.1167 36.0114C46.9244 36.9596 47.9865 37.4337 49.3033 37.4337C50.304 37.4337 51.1645 37.1878 51.8843 36.6963C52.6217 36.2046 53.1659 35.5374 53.5171 34.6947H58.2839C57.8274 36.8016 56.8178 38.487 55.2553 39.7512C53.7102 40.9977 51.7526 41.621 49.3823 41.621C47.5739 41.621 45.9851 41.226 44.6156 40.4359C43.2461 39.6283 42.1839 38.5045 41.4289 37.0649C40.6915 35.6252 40.3228 33.9835 40.3228 32.1401C40.3228 30.2965 40.6915 28.655 41.4289 27.2153C42.1839 25.7755 43.2461 24.6606 44.6156 23.8707C45.9851 23.063 47.5739 22.6592 49.3823 22.6592Z" fill="white"/>
<path d="M20.0545 7.57031H2.7722C1.24116 7.57031 0 8.81147 0 10.3425V36.1849C0 37.7159 1.24116 38.9571 2.7722 38.9571H20.0545C21.5856 38.9571 22.8267 37.7159 22.8267 36.1849V10.3425C22.8267 8.81147 21.5856 7.57031 20.0545 7.57031Z" fill="#357DE8"/>
<path d="M27.8729 0.390625H10.5906C9.05952 0.390625 7.81836 1.63178 7.81836 3.16283V29.0052C7.81836 30.5362 9.05952 31.7774 10.5906 31.7774H27.8729C29.4039 31.7774 30.6451 30.5362 30.6451 29.0052V3.16283C30.6451 1.63178 29.4039 0.390625 27.8729 0.390625Z" fill="#699CFF" fill-opacity="0.83"/>
</svg>
