<svg width="512" height="317" viewBox="0 0 512 317" fill="none" xmlns="http://www.w3.org/2000/svg">
<path d="M186.596 33.8071H324.897V282.309H186.596V33.8071Z" fill="#FF5F00"/>
<path d="M195.377 158.058C195.377 107.567 219.086 62.784 255.527 33.807C228.745 12.733 194.938 0 158.058 0C70.687 0 0 70.687 0 158.058C0 245.429 70.687 316.116 158.058 316.116C194.938 316.116 228.745 303.384 255.527 282.309C219.086 253.771 195.377 208.549 195.377 158.058Z" fill="#EB001B"/>
<path d="M511.494 158.058C511.494 245.429 440.807 316.116 353.436 316.116C316.556 316.116 282.749 303.384 255.967 282.309C292.847 253.332 316.117 208.549 316.117 158.058C316.117 107.567 292.408 62.784 255.967 33.807C282.749 12.733 316.556 0 353.436 0C440.807 0 511.494 71.126 511.494 158.058Z" fill="#F79E1B"/>
</svg>
