<svg width="82" height="28" viewBox="0 0 82 28" fill="none" xmlns="http://www.w3.org/2000/svg">
<path d="M42.5586 9.35264C42.5125 13.0023 45.801 15.0392 48.2783 16.2501C50.8236 17.4926 51.6785 18.2893 51.6688 19.4003C51.6494 21.1009 49.6384 21.8513 47.7561 21.8805C44.4725 21.9317 42.5635 20.9913 41.0455 20.2798L39.8627 25.8324C41.3856 26.5365 44.2053 27.1504 47.1295 27.1772C53.9931 27.1772 58.4839 23.7785 58.5082 18.5086C58.5349 11.8207 49.2862 11.4504 49.3494 8.46092C49.3712 7.55459 50.2334 6.58734 52.123 6.34127C53.0581 6.21701 55.6398 6.12199 58.5664 7.47419L59.7152 2.10195C58.1414 1.52697 56.1183 0.976343 53.5997 0.976343C47.1392 0.976343 42.5951 4.42139 42.5586 9.35264ZM70.7538 1.43926C69.5006 1.43926 68.4441 2.17261 67.9729 3.29822L58.1681 26.7826H65.0269L66.3918 22.9988H74.7734L75.5652 26.7826H81.6103L76.3351 1.43926H70.7538ZM71.7132 8.2855L73.6926 17.802H68.2717L71.7132 8.2855ZM34.2426 1.43926L28.8363 26.7826H35.372L40.7759 1.43926H34.2426ZM24.5738 1.43926L17.771 18.6889L15.0192 4.02183C14.6962 2.38457 13.4211 1.43926 12.0051 1.43926H0.883955L0.728516 2.17505C3.01153 2.67207 5.60542 3.47364 7.17681 4.33125C8.13859 4.85507 8.41304 5.31311 8.72877 6.55811L13.9408 26.7826H20.8482L31.4375 1.43926H24.5738Z" fill="white"/>
</svg>
