<svg width="95" height="21" viewBox="0 0 95 21" fill="none" xmlns="http://www.w3.org/2000/svg">
<g clip-path="url(#clip0_4070_16493)">
<path d="M17.6917 14.8129V5.67089H23.2068V6.65294H18.8055V9.74195H22.7937V10.724H18.8055V14.8129H17.6917Z" fill="#83F488"/>
<path d="M25.1145 14.8129V5.67089H26.2283V13.8309H30.5038V14.8129H25.1145Z" fill="#83F488"/>
<path d="M33.1862 14.8129H32.0185L35.3958 5.67089H36.5455L39.9229 14.8129H38.7552L36.0066 7.11719H35.9347L33.1862 14.8129ZM33.6173 11.2418H38.324V12.2239H33.6173V11.2418Z" fill="#83F488"/>
<path d="M46.3856 7.9564C46.3317 7.50406 46.1132 7.1529 45.7299 6.90292C45.3467 6.65294 44.8766 6.52795 44.3197 6.52795C43.9125 6.52795 43.5562 6.59342 43.2508 6.72436C42.9484 6.85531 42.7119 7.03535 42.5412 7.26449C42.3735 7.49364 42.2897 7.75403 42.2897 8.04567C42.2897 8.2897 42.3481 8.4995 42.4649 8.67508C42.5846 8.84769 42.7373 8.99202 42.923 9.10808C43.1086 9.22117 43.3032 9.31491 43.5068 9.38931C43.7104 9.46073 43.8975 9.51876 44.0682 9.5634L45.0024 9.81337C45.2419 9.87587 45.5084 9.96217 45.8018 10.0723C46.0982 10.1824 46.3811 10.3327 46.6506 10.5231C46.9231 10.7106 47.1476 10.9517 47.3243 11.2463C47.5009 11.5409 47.5893 11.9025 47.5893 12.331C47.5893 12.825 47.459 13.2714 47.1985 13.6702C46.941 14.0689 46.5638 14.3859 46.0668 14.621C45.5727 14.8561 44.9724 14.9736 44.2658 14.9736C43.6071 14.9736 43.0367 14.868 42.5547 14.6567C42.0756 14.4454 41.6984 14.1508 41.4229 13.7728C41.1505 13.3949 40.9963 12.956 40.9603 12.456H42.1101C42.14 12.8012 42.2568 13.0869 42.4604 13.3131C42.667 13.5363 42.9275 13.7029 43.2418 13.813C43.5592 13.9201 43.9005 13.9737 44.2658 13.9737C44.691 13.9737 45.0727 13.9053 45.4111 13.7684C45.7494 13.6285 46.0174 13.4351 46.215 13.1881C46.4126 12.9381 46.5114 12.6465 46.5114 12.3132C46.5114 12.0096 46.4261 11.7626 46.2554 11.5721C46.0847 11.3817 45.8602 11.2269 45.5817 11.1079C45.3033 10.9889 45.0024 10.8847 44.679 10.7954L43.5472 10.474C42.8286 10.2687 42.2598 9.97556 41.8406 9.59464C41.4214 9.21373 41.2118 8.71526 41.2118 8.09924C41.2118 7.58738 41.3511 7.14099 41.6295 6.76008C41.911 6.37618 42.2882 6.07859 42.7613 5.8673C43.2373 5.65303 43.7688 5.5459 44.3556 5.5459C44.9485 5.5459 45.4754 5.65154 45.9365 5.86283C46.3976 6.07115 46.7629 6.35684 47.0324 6.7199C47.3048 7.08296 47.4485 7.49513 47.4635 7.9564H46.3856Z" fill="#83F488"/>
<path d="M49.4205 14.8129V5.67089H50.5343V9.74195H55.4387V5.67089H56.5525V14.8129H55.4387V10.724H50.5343V14.8129H49.4205Z" fill="#83F488"/>
<path d="M68.9566 8.52778H67.8428C67.7769 8.20935 67.6616 7.92961 67.4969 7.68856C67.3353 7.44751 67.1376 7.24515 66.9041 7.08148C66.6736 6.91482 66.4176 6.78984 66.1361 6.70651C65.8547 6.62318 65.5613 6.58152 65.2559 6.58152C64.699 6.58152 64.1944 6.72139 63.7423 7.00113C63.2932 7.28086 62.9354 7.69303 62.669 8.23762C62.4055 8.78222 62.2737 9.45031 62.2737 10.2419C62.2737 11.0335 62.4055 11.7016 62.669 12.2462C62.9354 12.7908 63.2932 13.203 63.7423 13.4827C64.1944 13.7624 64.699 13.9023 65.2559 13.9023C65.5613 13.9023 65.8547 13.8606 66.1361 13.7773C66.4176 13.694 66.6736 13.5705 66.9041 13.4068C67.1376 13.2402 67.3353 13.0363 67.4969 12.7952C67.6616 12.5512 67.7769 12.2715 67.8428 11.956H68.9566C68.8727 12.4233 68.72 12.8414 68.4985 13.2104C68.2769 13.5794 68.0014 13.8934 67.6721 14.1523C67.3427 14.4082 66.973 14.6031 66.5628 14.737C66.1556 14.871 65.7199 14.9379 65.2559 14.9379C64.4714 14.9379 63.7738 14.7475 63.163 14.3665C62.5522 13.9856 62.0716 13.444 61.7213 12.7417C61.371 12.0394 61.1959 11.2061 61.1959 10.2419C61.1959 9.27771 61.371 8.44445 61.7213 7.74213C62.0716 7.03981 62.5522 6.49819 63.163 6.11728C63.7738 5.73636 64.4714 5.5459 65.2559 5.5459C65.7199 5.5459 66.1556 5.61286 66.5628 5.74677C66.973 5.88069 67.3427 6.0771 67.6721 6.33601C68.0014 6.59194 68.2769 6.90441 68.4985 7.27342C68.72 7.63946 68.8727 8.05758 68.9566 8.52778Z" fill="#83F488"/>
<path d="M71.1336 14.8129H69.9659L73.3433 5.67089H74.493L77.8704 14.8129H76.7027L73.9541 7.11719H73.8822L71.1336 14.8129ZM71.5648 11.2418H76.2715V12.2239H71.5648V11.2418Z" fill="#83F488"/>
<path d="M84.3331 7.9564C84.2792 7.50406 84.0606 7.1529 83.6774 6.90292C83.2942 6.65294 82.8241 6.52795 82.2672 6.52795C81.86 6.52795 81.5037 6.59342 81.1983 6.72436C80.8959 6.85531 80.6594 7.03535 80.4887 7.26449C80.321 7.49364 80.2372 7.75403 80.2372 8.04567C80.2372 8.2897 80.2956 8.4995 80.4123 8.67508C80.5321 8.84769 80.6848 8.99202 80.8704 9.10808C81.0561 9.22117 81.2507 9.31491 81.4543 9.38931C81.6579 9.46073 81.845 9.51876 82.0157 9.5634L82.9498 9.81337C83.1894 9.87587 83.4558 9.96217 83.7493 10.0723C84.0457 10.1824 84.3286 10.3327 84.5981 10.5231C84.8706 10.7106 85.0951 10.9517 85.2718 11.2463C85.4484 11.5409 85.5367 11.9025 85.5367 12.331C85.5367 12.825 85.4065 13.2714 85.146 13.6702C84.8885 14.0689 84.5113 14.3859 84.0142 14.621C83.5202 14.8561 82.9199 14.9736 82.2133 14.9736C81.5546 14.9736 80.9842 14.868 80.5022 14.6567C80.0231 14.4454 79.6459 14.1508 79.3704 13.7728C79.0979 13.3949 78.9437 12.956 78.9078 12.456H80.0575C80.0875 12.8012 80.2043 13.0869 80.4079 13.3131C80.6145 13.5363 80.8749 13.7029 81.1893 13.813C81.5067 13.9201 81.848 13.9737 82.2133 13.9737C82.6385 13.9737 83.0202 13.9053 83.3585 13.7684C83.6969 13.6285 83.9648 13.4351 84.1625 13.1881C84.3601 12.9381 84.4589 12.6465 84.4589 12.3132C84.4589 12.0096 84.3735 11.7626 84.2029 11.5721C84.0322 11.3817 83.8077 11.2269 83.5292 11.1079C83.2507 10.9889 82.9498 10.8847 82.6265 10.7954L81.4947 10.474C80.7761 10.2687 80.2073 9.97556 79.7881 9.59464C79.3689 9.21373 79.1593 8.71526 79.1593 8.09924C79.1593 7.58738 79.2985 7.14099 79.577 6.76008C79.8584 6.37618 80.2357 6.07859 80.7088 5.8673C81.1848 5.65303 81.7163 5.5459 82.3031 5.5459C82.8959 5.5459 83.4229 5.65154 83.884 5.86283C84.3451 6.07115 84.7104 6.35684 84.9798 6.7199C85.2523 7.08296 85.396 7.49513 85.411 7.9564H84.3331Z" fill="#83F488"/>
<path d="M87.368 14.8129V5.67089H88.4818V9.74195H93.3861V5.67089H94.4999V14.8129H93.3861V10.724H88.4818V14.8129H87.368Z" fill="#83F488"/>
<path d="M12.7445 8.85572L14.3643 10.1207L13.974 10.6766C13.974 10.6766 13.5167 10.3316 13.3497 10.207L13.3499 10.25C13.3499 13.3617 10.9746 15.9152 7.94897 16.1751V15.3085C10.4413 15.0576 12.3998 12.9843 12.4894 10.4321L12.1068 10.9977L11.5686 10.5952L12.7445 8.85572ZM2.11978 11.6515L0.5 10.3863L0.890334 9.83061C0.890334 9.83061 1.34764 10.1756 1.51465 10.3002L1.51444 10.2572C1.51444 7.14525 3.88972 4.59204 6.91534 4.33207V5.19806C4.42296 5.44942 2.46447 7.52294 2.37488 10.0749L2.75754 9.50952L3.29568 9.91196L2.11978 11.6515ZM5.88191 11.9153L7.4569 11.1565L5.87231 11.9201L5.39239 12.1301L5.88191 11.9153ZM3.67685 12.8831L5.739 12.845L1.91459 17.4644L5.29748 14.1184L1.90989 17.4692L10.0685 10.9953H7.79177L11.1448 7.69834H9.10632L12.964 3.05072V3.05029L4.76274 9.61045L7.00599 9.58656L3.68069 12.8794L3.67215 12.8833H3.67685V12.8831ZM7.37776 8.59898L7.37755 8.59919L9.05684 7.72416L7.37776 8.59898Z" fill="#83F488"/>
</g>
<defs>
<clipPath id="clip0_4070_16493">
<rect width="94" height="20.7965" fill="white" transform="translate(0.5)"/>
</clipPath>
</defs>
</svg>
