<svg width="329" height="76" viewBox="0 0 329 76" fill="none" xmlns="http://www.w3.org/2000/svg">
<path fill-rule="evenodd" clip-rule="evenodd" d="M0.0495706 69.014C0.446135 72.5831 3.02381 74.8137 6.84074 74.8137H24.3887C38.9129 74.8137 50.215 68.667 56.2131 57.7119V57.6623H56.1635V57.6127H56.1139L56.0643 57.5632L56.0148 57.5136V57.464H55.9652L55.9156 57.4145L55.8661 57.3649H55.8165V57.3153H55.7669V57.2657H55.7173V57.2162L55.6678 57.1666H55.6182V57.117H55.5686V57.0675H55.5191V57.0179H55.4695V56.9683H55.4199V56.9188H55.3703V56.8692H55.3208V56.8196H55.2712V56.77H55.2216V56.7205H55.1721C54.1807 55.7786 53.1892 54.8368 52.1978 53.8949C49.9176 51.7634 48.9757 47.7482 46.1502 49.4336C40.6975 52.6557 37.8719 56.423 32.2209 55.1342C31.1303 54.8368 30.0893 54.2915 29.1475 53.6967C28.7014 53.3992 28.2552 53.1018 28.057 52.6557C27.8091 52.16 27.8587 51.6147 28.2552 51.2181C28.6518 50.8216 29.1971 50.5737 29.7424 50.425C30.2381 50.2763 30.7833 50.1276 31.279 49.9293C32.32 49.5327 33.2619 48.9379 34.1046 48.2439C34.402 47.996 34.6994 47.6986 34.9473 47.4012C33.4106 47.5995 31.8739 47.6491 30.3868 47.8473C28.3048 48.0456 26.2228 48.343 24.1904 48.69C20.5718 49.3345 17.1019 50.3754 13.8798 52.16C10.9551 53.7958 8.27829 55.9273 5.99804 58.4554C3.66822 61.1323 1.83411 64.2056 0.545277 67.5269V67.5764V67.626V67.6756H0.495706V67.7251V67.7747L0.446135 67.8243V67.8738V67.9234L0.396565 67.973V68.0226V68.0721H0.346994V68.1217V68.1713V68.2208H0.297424V68.2704V68.32L0.247853 68.3696V68.4191V68.4687L0.198282 68.5183V68.5678V68.6174L0.148712 68.667V68.7166V68.7661L0.0991412 68.8157V68.8653V68.9148L0.0495706 68.9644V69.014ZM0.0495706 50.0284C2.67681 46.3602 5.35362 42.6424 7.5843 39.8665C9.86455 37.0905 11.7482 35.2564 13.5823 33.5214C15.3669 31.7865 17.1019 30.2002 18.242 28.7131C19.4317 27.1764 19.9769 25.6397 20.1257 24.2517C20.2744 22.8638 20.0265 21.5749 19.7291 20.6827C19.3821 19.7904 18.936 19.3442 18.2915 18.9477C17.5976 18.6007 16.6557 18.3033 15.5652 18.2041C15.119 18.2041 14.6233 18.2041 14.1772 18.2041C14.2268 18.1546 14.2268 18.0554 14.3259 18.0058C14.3755 17.9563 14.3755 17.9563 14.425 17.9067C16.3583 16.4196 18.8368 15.8743 21.2658 16.2213C23.7939 16.5683 26.0246 17.8076 28.057 19.3442C28.6518 19.7904 29.0979 20.3357 29.6928 20.6827C30.0398 20.8809 30.2876 20.9801 30.6346 20.9801C30.6842 20.9801 30.7338 20.9801 30.7833 20.9801C31.1303 20.9305 31.4773 20.8809 31.8739 20.7818C33.014 20.5835 34.1541 20.2365 35.2943 20.0382C35.79 19.9887 36.3352 19.8895 36.8309 19.8895C37.5249 19.7408 38.3181 19.6912 39.0616 19.6417C40.6479 19.6417 42.2837 19.84 43.87 20.1869C46.7946 20.7818 49.6202 21.8723 52.1978 23.2603C54.8251 24.6483 57.2045 26.4328 59.2864 28.5148H59.336V28.5644H59.3856V28.6139H59.4351V28.6635H59.4847V28.7131H59.5343V28.7627H59.5839V28.8122H59.6334V28.8618H59.683V28.9114H59.7326V28.9609H59.7821V29.0105L59.8317 29.0601L59.8813 29.1097L59.9308 29.1592L59.9804 29.2088L60.03 29.2584L60.0796 29.3079V29.3575H60.1291V29.4071H60.1787V29.4566H60.2283V29.5062H60.2778V29.5558L60.3274 29.6054C57.4027 10.9172 43.7213 0.0117188 24.3887 0.0117188H5.8989V0.11086C2.23068 0.556995 0 3.13467 0 6.85246V50.1772V50.1276L0.0495706 50.078V50.0284ZM1.58626 55.8778C4.75878 50.6233 7.98087 45.4184 11.5004 40.8083C15.0695 36.2478 18.936 32.2822 23.2486 29.4566C27.5612 26.6311 32.3696 24.8962 37.1284 24.5987C41.8871 24.3013 46.5964 25.4414 50.3141 27.1268C54.0319 28.8122 56.8079 31.0925 59.5343 33.3727C57.1549 31.8856 54.7755 30.3985 51.256 29.2584C47.786 28.1678 43.1264 27.3747 37.3762 28.5644C31.5765 29.8036 24.6366 32.9762 18.4898 37.8836C12.3431 42.7416 6.93988 49.3345 1.58626 55.8778Z" fill="#CE1013"/>
<path d="M87.939 6.3075H98.3488C101.026 6.3075 103.355 6.55536 105.289 7.05106C107.222 7.54677 108.957 8.48861 110.543 9.87659C114.608 13.3961 116.64 18.7002 116.64 25.8383C116.64 28.2177 116.442 30.3492 116.045 32.2825C115.649 34.2653 115.005 36.0003 114.162 37.5865C113.27 39.1232 112.179 40.5112 110.841 41.7505C109.8 42.6923 108.659 43.4854 107.371 44.0307C106.131 44.6256 104.793 45.0221 103.355 45.2204C101.918 45.4683 100.282 45.5674 98.4975 45.5674H88.1373C86.6997 45.5674 85.6092 45.3691 84.8656 44.923C84.122 44.4769 83.6263 43.882 83.428 43.0889C83.1802 42.2958 83.0811 41.2548 83.0811 39.9659V11.1654C83.0811 9.48002 83.4776 8.24076 84.2212 7.44763C85.0143 6.70407 86.2536 6.3075 87.939 6.3075ZM91.0619 12.603V39.2719H97.06C98.3984 39.2719 99.4394 39.2224 100.183 39.1728C100.926 39.0737 101.72 38.925 102.513 38.6275C103.306 38.3301 104 37.9335 104.595 37.4378C107.272 35.1576 108.61 31.2911 108.61 25.7887C108.61 21.9222 108.015 18.9976 106.825 17.0643C105.685 15.1806 104.248 13.9414 102.513 13.3961C100.778 12.9004 98.7454 12.603 96.3164 12.603H91.0619ZM146.68 41.1061L144.796 36.1986H128.835L126.951 41.2548C126.207 43.188 125.613 44.5264 125.067 45.2204C124.572 45.9144 123.729 46.2614 122.539 46.2614C121.548 46.2614 120.656 45.8648 119.912 45.1213C119.119 44.4273 118.722 43.5846 118.722 42.6427C118.722 42.0975 118.821 41.5522 119.02 41.0069C119.168 40.4121 119.466 39.6189 119.912 38.6275L129.925 13.0987C130.223 12.4047 130.57 11.5124 130.966 10.4714C131.363 9.43045 131.809 8.58775 132.255 7.94333C132.701 7.24934 133.296 6.70407 134.04 6.25793C134.783 5.86137 135.725 5.66309 136.766 5.66309C137.906 5.66309 138.848 5.86137 139.592 6.25793C140.286 6.70407 140.88 7.24934 141.376 7.89376C141.822 8.53818 142.219 9.28174 142.516 10.0253C142.814 10.7689 143.21 11.8098 143.706 13.0491L153.967 38.3797C154.76 40.3129 155.157 41.7009 155.157 42.5932C155.157 43.4854 154.81 44.3281 154.017 45.1213C153.273 45.8648 152.331 46.2614 151.29 46.2614C150.646 46.2614 150.1 46.1127 149.654 45.9144C149.208 45.6666 148.861 45.3691 148.564 44.9726C148.266 44.6256 147.919 44.0307 147.572 43.2376C147.225 42.4445 146.928 41.7505 146.68 41.1061ZM130.917 30.2005H142.665L136.766 14.0405L130.917 30.2005ZM158.974 29.3578V10.4714C158.974 8.8356 159.321 7.64591 160.015 6.85278C160.758 6.05965 161.7 5.66309 162.89 5.66309C164.129 5.66309 165.071 6.05965 165.814 6.85278C166.558 7.64591 166.905 8.88517 166.905 10.4714V29.804C166.905 31.9851 167.153 33.8192 167.648 35.3063C168.144 36.7438 168.987 37.884 170.226 38.7267C171.515 39.5198 173.25 39.9164 175.481 39.9164C178.604 39.9164 180.785 39.1232 182.074 37.4378C183.362 35.802 184.007 33.2739 184.007 29.9527V10.4714C184.007 8.8356 184.354 7.64591 185.097 6.85278C185.791 6.05965 186.783 5.66309 187.972 5.66309C189.162 5.66309 190.104 6.05965 190.848 6.85278C191.591 7.64591 191.988 8.8356 191.988 10.4714V29.3578C191.988 32.4312 191.69 35.0089 191.095 37.0413C190.451 39.0737 189.36 40.9078 187.675 42.4445C186.237 43.7829 184.602 44.7247 182.718 45.3196C180.834 45.9144 178.604 46.2614 176.075 46.2614C173.052 46.2614 170.474 45.9144 168.243 45.27C166.112 44.6256 164.327 43.5846 162.939 42.2462C161.551 40.8582 160.56 39.1232 159.915 36.9917C159.271 34.8602 158.974 32.3321 158.974 29.3578ZM215.831 30.2997H208.544V41.4035C208.544 42.9897 208.148 44.1794 207.404 45.0221C206.661 45.8153 205.719 46.2614 204.579 46.2614C203.389 46.2614 202.397 45.8153 201.654 45.0221C200.96 44.229 200.563 42.9897 200.563 41.4531V11.1654C200.563 9.43045 200.96 8.19119 201.803 7.44763C202.596 6.70407 203.835 6.3075 205.62 6.3075H215.831C218.855 6.3075 221.135 6.55536 222.771 7.00149C224.407 7.44763 225.795 8.19119 226.935 9.23217C228.125 10.2732 229.017 11.5124 229.612 13.0491C230.207 14.5362 230.504 16.2216 230.504 18.1053C230.504 22.1205 229.314 25.1443 226.836 27.1767C224.357 29.2587 220.689 30.2997 215.831 30.2997ZM213.898 12.3055H208.544V24.3016H213.898C215.782 24.3016 217.318 24.1033 218.607 23.7068C219.846 23.3102 220.788 22.6658 221.482 21.7735C222.127 20.8813 222.474 19.6916 222.474 18.254C222.474 16.519 221.928 15.1311 220.937 14.0405C219.797 12.8508 217.467 12.3055 213.898 12.3055ZM245.177 10.4714V21.724H262.328V10.4714C262.328 8.88517 262.725 7.64591 263.419 6.85278C264.162 6.05965 265.104 5.66309 266.294 5.66309C267.484 5.66309 268.425 6.05965 269.169 6.85278C269.913 7.64591 270.309 8.8356 270.309 10.4714V41.4035C270.309 43.0393 269.913 44.229 269.169 45.0221C268.425 45.8153 267.434 46.2614 266.294 46.2614C265.104 46.2614 264.113 45.8153 263.419 45.0221C262.675 44.229 262.328 42.9897 262.328 41.4035V28.2177H245.177V41.4035C245.177 43.0393 244.78 44.229 244.037 45.0221C243.293 45.8153 242.351 46.2614 241.162 46.2614C239.972 46.2614 238.981 45.8153 238.287 45.0221C237.593 44.229 237.196 42.9897 237.196 41.4035V10.4714C237.196 8.8356 237.593 7.64591 238.287 6.85278C238.981 6.05965 239.922 5.66309 241.162 5.66309C242.351 5.66309 243.293 6.05965 244.037 6.85278C244.78 7.64591 245.177 8.8356 245.177 10.4714ZM279.182 41.4035V10.4714C279.182 8.8356 279.529 7.64591 280.273 6.85278C281.016 6.05965 281.958 5.66309 283.098 5.66309C284.288 5.66309 285.279 6.05965 286.023 6.85278C286.767 7.64591 287.114 8.8356 287.114 10.4714V41.4035C287.114 43.0393 286.767 44.229 286.023 45.0221C285.279 45.8153 284.288 46.2614 283.098 46.2614C281.958 46.2614 281.016 45.8153 280.273 45.0221C279.529 44.229 279.182 42.9897 279.182 41.4035ZM306.397 10.4219L321.664 33.5713V10.2236C321.664 8.68689 322.011 7.54677 322.656 6.80321C323.3 6.01008 324.192 5.66309 325.283 5.66309C326.423 5.66309 327.315 6.01008 328.009 6.80321C328.654 7.54677 329.001 8.68689 329.001 10.2236V41.0565C329.001 44.5264 327.563 46.2614 324.688 46.2614C323.994 46.2614 323.35 46.1623 322.755 45.9144C322.21 45.7161 321.664 45.4187 321.169 44.9726C320.673 44.5264 320.227 43.9812 319.781 43.3863C319.334 42.7915 318.938 42.1966 318.492 41.5522L303.571 18.7002V41.7009C303.571 43.188 303.224 44.3281 302.53 45.0717C301.836 45.8648 300.944 46.2614 299.853 46.2614C298.713 46.2614 297.821 45.8648 297.127 45.0717C296.482 44.2786 296.135 43.188 296.135 41.7009V11.4133C296.135 10.1244 296.284 9.13303 296.532 8.38947C296.879 7.59634 297.474 6.90235 298.217 6.40664C299.011 5.91094 299.903 5.66309 300.795 5.66309C301.489 5.66309 302.133 5.76223 302.629 6.01008C303.125 6.25793 303.571 6.55536 303.968 6.95192C304.364 7.34849 304.761 7.84419 305.157 8.48861C305.554 9.08346 305.95 9.72787 306.397 10.4219Z" fill="#CC0A14"/>
<path d="M93.986 55.9774H87.2444V60.29H92.8954C93.3911 60.29 93.7877 60.4388 94.0355 60.637C94.2834 60.8849 94.4321 61.1823 94.4321 61.5789C94.4321 61.9754 94.2834 62.3224 94.0355 62.5207C93.7877 62.7686 93.3911 62.8677 92.8954 62.8677H87.2444V68.4692C87.2444 69.1632 87.0461 69.7085 86.7486 70.0554C86.4512 70.3529 86.0051 70.5512 85.5094 70.5512C85.0137 70.5512 84.6171 70.3529 84.2701 70.0059C83.9727 69.6589 83.7744 69.1632 83.7744 68.4692V55.4321C83.7744 54.9364 83.8736 54.5399 84.0223 54.1929C84.171 53.8954 84.3693 53.6972 84.7163 53.5484C85.0137 53.3997 85.4102 53.3006 85.9059 53.3006H93.986C94.5312 53.3006 94.9278 53.4493 95.2252 53.6972C95.4731 53.945 95.6218 54.2424 95.6218 54.639C95.6218 55.0356 95.4731 55.3826 95.2252 55.6304C94.9278 55.8287 94.5312 55.9774 93.986 55.9774ZM100.777 59.4969V68.6179C100.777 69.2623 100.628 69.758 100.331 70.0554C100.034 70.4024 99.637 70.5512 99.1909 70.5512C98.7447 70.5512 98.3482 70.4024 98.0507 70.0554C97.8029 69.7085 97.6542 69.2623 97.6542 68.6179V59.5961C97.6542 59.0012 97.8029 58.5055 98.0507 58.2081C98.3482 57.8611 98.7447 57.7124 99.1909 57.7124C99.637 57.7124 100.034 57.8611 100.331 58.2081C100.628 58.5055 100.777 58.9516 100.777 59.4969ZM99.2404 56.2748C98.7943 56.2748 98.3977 56.1261 98.1003 55.8287C97.8029 55.5808 97.6542 55.1843 97.6542 54.6886C97.6542 54.292 97.8029 53.8954 98.1003 53.598C98.4473 53.3502 98.7943 53.2014 99.2404 53.2014C99.637 53.2014 99.984 53.3006 100.331 53.5484C100.628 53.8459 100.777 54.1929 100.777 54.6886C100.777 55.1843 100.628 55.5808 100.331 55.8287C100.034 56.1261 99.637 56.2748 99.2404 56.2748ZM106.924 59.4473V59.8439C107.469 59.1003 108.064 58.5551 108.708 58.2576C109.402 57.9107 110.146 57.7124 110.989 57.7124C111.831 57.7124 112.575 57.9107 113.219 58.2576C113.864 58.6046 114.359 59.1499 114.706 59.7943C114.905 60.1909 115.053 60.5875 115.103 61.0336C115.153 61.4797 115.202 62.0746 115.202 62.7686V68.6179C115.202 69.2623 115.053 69.758 114.756 70.0554C114.459 70.4024 114.112 70.5512 113.616 70.5512C113.17 70.5512 112.773 70.4024 112.476 70.0554C112.178 69.7085 112.03 69.2623 112.03 68.6179V63.3634C112.03 62.3224 111.881 61.5293 111.633 60.984C111.336 60.4388 110.741 60.1413 109.898 60.1413C109.303 60.1413 108.808 60.3396 108.361 60.637C107.866 60.984 107.568 61.4797 107.32 62.025C107.172 62.5207 107.122 63.413 107.122 64.7018V68.6179C107.122 69.2623 106.973 69.758 106.676 70.0554C106.379 70.4024 105.982 70.5512 105.486 70.5512C105.04 70.5512 104.693 70.4024 104.396 70.0554C104.098 69.7085 103.95 69.2623 103.95 68.6179V59.4969C103.95 58.9021 104.098 58.4559 104.346 58.1585C104.594 57.8611 104.941 57.7124 105.437 57.7124C105.685 57.7124 105.932 57.8115 106.18 57.9107C106.379 58.0594 106.577 58.2576 106.726 58.5055C106.825 58.7534 106.924 59.1003 106.924 59.4473ZM129.726 55.9774H121.993V60.1413H129.082C129.627 60.1413 130.024 60.2405 130.272 60.4883C130.519 60.7362 130.668 61.0336 130.668 61.4302C130.668 61.7772 130.519 62.1242 130.272 62.372C130.024 62.5703 129.627 62.719 129.082 62.719H121.993V67.5273H129.974C130.519 67.5273 130.916 67.6761 131.213 67.9239C131.461 68.1718 131.61 68.5188 131.61 68.9153C131.61 69.3119 131.461 69.6589 131.213 69.9067C130.916 70.1546 130.519 70.2537 129.974 70.2537H120.655C119.911 70.2537 119.366 70.105 119.019 69.758C118.722 69.411 118.573 68.9153 118.573 68.1718V55.4321C118.573 54.9364 118.623 54.5399 118.771 54.1929C118.92 53.8954 119.168 53.6972 119.465 53.5484C119.763 53.3997 120.159 53.3006 120.655 53.3006H129.726C130.272 53.3006 130.668 53.4493 130.916 53.6972C131.213 53.945 131.313 54.2424 131.313 54.639C131.313 55.0356 131.213 55.3826 130.916 55.6304C130.668 55.8287 130.272 55.9774 129.726 55.9774ZM145.44 66.6351C145.44 67.0316 145.292 67.4778 145.093 67.9239C144.845 68.37 144.498 68.7666 144.003 69.1632C143.507 69.5597 142.912 69.9067 142.169 70.1546C141.475 70.4024 140.632 70.5016 139.69 70.5016C137.757 70.5016 136.22 69.9563 135.13 68.8162C134.039 67.6761 133.494 66.1394 133.494 64.2557C133.494 62.9669 133.742 61.8267 134.237 60.8353C134.783 59.8439 135.477 59.0508 136.418 58.5055C137.36 57.9602 138.5 57.7124 139.839 57.7124C140.632 57.7124 141.375 57.8115 142.069 58.0594C142.763 58.3072 143.358 58.6046 143.804 59.0012C144.3 59.3482 144.647 59.7448 144.895 60.1909C145.143 60.637 145.292 61.0336 145.292 61.3806C145.292 61.7772 145.143 62.0746 144.845 62.372C144.548 62.6199 144.201 62.719 143.804 62.719C143.557 62.719 143.358 62.6694 143.16 62.5207C143.011 62.4216 142.813 62.1737 142.565 61.8763C142.218 61.331 141.822 60.8849 141.375 60.5875C140.979 60.29 140.434 60.1413 139.789 60.1413C138.847 60.1413 138.104 60.4883 137.509 61.2319C136.964 61.9754 136.666 62.9669 136.666 64.2061C136.666 64.801 136.765 65.3462 136.914 65.8419C137.063 66.3377 137.261 66.7838 137.509 67.1308C137.806 67.4778 138.153 67.7256 138.55 67.9239C138.946 68.0726 139.343 68.1718 139.839 68.1718C140.483 68.1718 140.979 68.0231 141.425 67.7256C141.921 67.4282 142.317 66.9821 142.664 66.3872C142.813 66.0402 143.061 65.7924 143.259 65.5941C143.507 65.3958 143.755 65.2471 144.102 65.2471C144.498 65.2471 144.796 65.3958 145.044 65.6932C145.292 65.9907 145.44 66.3377 145.44 66.6351ZM159.964 64.1565C159.964 65.0984 159.816 65.9411 159.568 66.7342C159.27 67.5273 158.824 68.2213 158.279 68.7666C157.734 69.3615 157.04 69.8076 156.296 70.105C155.503 70.4024 154.66 70.5512 153.669 70.5512C152.727 70.5512 151.884 70.4024 151.091 70.105C150.348 69.758 149.703 69.3119 149.108 68.7666C148.563 68.1718 148.117 67.5273 147.869 66.7342C147.572 65.9411 147.423 65.0984 147.423 64.1565C147.423 63.1651 147.572 62.3224 147.869 61.5293C148.167 60.7362 148.563 60.0422 149.108 59.4969C149.654 58.9021 150.348 58.5055 151.091 58.1585C151.884 57.8611 152.727 57.7124 153.669 57.7124C154.66 57.7124 155.503 57.8611 156.296 58.2081C157.04 58.5055 157.734 58.9516 158.279 59.4969C158.824 60.0918 159.27 60.7362 159.568 61.5293C159.816 62.3224 159.964 63.2147 159.964 64.1565ZM156.792 64.1565C156.792 62.8677 156.544 61.8763 155.949 61.1327C155.404 60.4388 154.66 60.0422 153.669 60.0422C153.074 60.0422 152.529 60.2405 152.033 60.5379C151.587 60.8849 151.24 61.331 150.992 61.9754C150.695 62.5703 150.596 63.3138 150.596 64.1565C150.596 64.9497 150.695 65.6932 150.943 66.2881C151.24 66.9325 151.587 67.3786 152.033 67.7256C152.479 68.0231 153.074 68.2213 153.669 68.2213C154.66 68.2213 155.404 67.8248 155.949 67.1308C156.544 66.3872 156.792 65.3958 156.792 64.1565ZM175.53 65.1975C175.53 66.1889 175.282 67.1308 174.736 67.9239C174.241 68.7666 173.448 69.411 172.456 69.8572C171.415 70.3033 170.226 70.5512 168.838 70.5512C167.152 70.5512 165.764 70.2537 164.674 69.6093C163.93 69.1632 163.286 68.5188 162.84 67.7752C162.344 67.0316 162.096 66.2881 162.096 65.5941C162.096 65.148 162.245 64.801 162.542 64.5035C162.84 64.2061 163.187 64.0574 163.633 64.0574C163.98 64.0574 164.277 64.1565 164.525 64.4044C164.822 64.6523 165.021 64.9992 165.169 65.4454C165.417 65.9907 165.615 66.4368 165.863 66.7838C166.161 67.1308 166.508 67.4282 166.954 67.6761C167.4 67.9239 167.995 68.0231 168.738 68.0231C169.73 68.0231 170.573 67.8248 171.217 67.3291C171.861 66.8334 172.159 66.2881 172.159 65.5445C172.159 64.9992 172.01 64.5531 171.663 64.2061C171.316 63.8096 170.87 63.5617 170.325 63.3634C169.779 63.2147 169.036 63.0164 168.144 62.7686C166.954 62.5207 165.913 62.1737 165.07 61.7772C164.277 61.4302 163.633 60.8849 163.137 60.2405C162.641 59.5961 162.443 58.7534 162.443 57.7619C162.443 56.8201 162.691 56.027 163.187 55.2834C163.682 54.5894 164.426 53.9946 165.368 53.598C166.359 53.251 167.499 53.0527 168.788 53.0527C169.829 53.0527 170.721 53.1519 171.465 53.3997C172.258 53.6972 172.853 54.0441 173.348 54.4407C173.844 54.8868 174.241 55.333 174.489 55.7791C174.687 56.2748 174.836 56.721 174.836 57.1671C174.836 57.5637 174.687 57.9602 174.389 58.2576C174.092 58.6046 173.745 58.7534 173.299 58.7534C172.902 58.7534 172.605 58.6542 172.407 58.4559C172.208 58.2576 171.96 57.9602 171.762 57.5141C171.415 56.8697 171.068 56.374 170.622 56.027C170.176 55.6304 169.482 55.4817 168.54 55.4817C167.648 55.4817 166.954 55.68 166.409 56.0765C165.863 56.4731 165.566 56.9192 165.566 57.4645C165.566 57.8115 165.665 58.1089 165.863 58.3568C166.062 58.6046 166.309 58.8029 166.607 58.9516C166.954 59.1499 167.301 59.2986 167.598 59.3978C167.945 59.4969 168.491 59.6456 169.234 59.8439C170.226 60.0422 171.068 60.29 171.861 60.5875C172.605 60.8353 173.299 61.1823 173.844 61.5789C174.389 61.9259 174.786 62.4216 175.083 63.0164C175.381 63.6113 175.53 64.3053 175.53 65.1975ZM181.131 70.9477L181.428 70.2537L177.562 60.4388C177.314 59.8935 177.215 59.4969 177.215 59.2491C177.215 58.9516 177.265 58.7038 177.413 58.5055C177.562 58.2576 177.76 58.0594 178.008 57.9107C178.206 57.8115 178.504 57.7124 178.752 57.7124C179.198 57.7124 179.545 57.8611 179.793 58.1585C179.991 58.4559 180.189 58.8525 180.387 59.3978L183.064 67.1804L185.592 59.943C185.791 59.3482 185.939 58.9021 186.138 58.5551C186.286 58.2576 186.435 58.0098 186.633 57.9107C186.832 57.7619 187.08 57.7124 187.427 57.7124C187.625 57.7124 187.873 57.7619 188.071 57.9107C188.319 58.0594 188.467 58.2081 188.616 58.4064C188.715 58.6542 188.765 58.8525 188.765 59.1003C188.765 59.2491 188.715 59.4473 188.616 59.7448C188.567 59.9926 188.467 60.29 188.368 60.5379L184.254 71.3443C183.907 72.2861 183.56 73.0297 183.213 73.575C182.866 74.0707 182.42 74.5168 181.875 74.8142C181.329 75.0621 180.586 75.2108 179.644 75.2108C178.702 75.2108 178.008 75.1116 177.562 74.9134C177.066 74.7151 176.868 74.3681 176.868 73.8228C176.868 73.4758 176.967 73.1784 177.165 72.9801C177.413 72.7818 177.711 72.6827 178.157 72.6827C178.306 72.6827 178.504 72.7323 178.653 72.7818C178.851 72.8314 179.049 72.8314 179.148 72.8314C179.545 72.8314 179.842 72.7818 180.04 72.6827C180.239 72.5835 180.437 72.3853 180.586 72.1374C180.734 71.84 180.933 71.4434 181.131 70.9477ZM200.91 66.4368C200.91 67.2795 200.711 68.0231 200.265 68.6675C199.869 69.2623 199.224 69.758 198.382 70.0554C197.588 70.4024 196.548 70.5512 195.358 70.5512C194.267 70.5512 193.276 70.3529 192.483 70.0059C191.64 69.6589 191.045 69.2623 190.698 68.717C190.302 68.2213 190.103 67.6761 190.103 67.1804C190.103 66.8334 190.202 66.5359 190.45 66.2881C190.698 66.0402 191.045 65.8915 191.392 65.8915C191.739 65.8915 191.987 65.9907 192.185 66.1394C192.334 66.3377 192.532 66.5359 192.681 66.8334C192.978 67.3786 193.375 67.8248 193.821 68.0726C194.267 68.37 194.912 68.5188 195.655 68.5188C196.3 68.5188 196.845 68.37 197.241 68.0726C197.638 67.8248 197.836 67.4778 197.836 67.1308C197.836 66.5855 197.638 66.1889 197.192 65.8915C196.795 65.6437 196.101 65.3958 195.11 65.1975C194.069 64.9001 193.177 64.6027 192.483 64.3548C191.789 64.0574 191.243 63.6608 190.847 63.1651C190.45 62.6694 190.252 62.0746 190.252 61.3806C190.252 60.7362 190.45 60.1413 190.797 59.5961C191.194 59.0012 191.739 58.5551 192.483 58.2081C193.226 57.9107 194.119 57.7124 195.16 57.7124C195.953 57.7124 196.696 57.8115 197.341 57.9602C197.985 58.1585 198.53 58.3568 198.976 58.6542C199.423 58.9516 199.72 59.2491 199.968 59.5961C200.166 59.943 200.315 60.29 200.315 60.637C200.315 60.984 200.166 61.2815 199.918 61.5293C199.67 61.7276 199.323 61.8763 198.877 61.8763C198.58 61.8763 198.282 61.7772 198.084 61.5789C197.836 61.3806 197.588 61.1327 197.291 60.7362C197.043 60.4388 196.795 60.1909 196.448 59.9926C196.151 59.8439 195.705 59.7448 195.11 59.7448C194.565 59.7448 194.069 59.8439 193.722 60.0918C193.325 60.3396 193.127 60.637 193.127 60.984C193.127 61.331 193.276 61.6284 193.573 61.8267C193.821 62.025 194.218 62.2233 194.664 62.372C195.16 62.4711 195.804 62.6694 196.647 62.8677C197.588 63.1156 198.382 63.3634 199.026 63.7104C199.621 64.0574 200.117 64.454 200.414 64.9001C200.761 65.3462 200.91 65.8419 200.91 66.4368ZM203.735 58.0098H204.082V56.1261C204.082 55.5808 204.132 55.1843 204.132 54.9364C204.181 54.639 204.231 54.3911 204.38 54.1929C204.479 53.945 204.677 53.7963 204.925 53.6476C205.123 53.4989 205.371 53.4493 205.668 53.4493C206.065 53.4493 206.412 53.598 206.759 53.8954C206.957 54.0937 207.106 54.3416 207.156 54.639C207.205 54.9364 207.255 55.333 207.255 55.8783V58.0098H208.395C208.841 58.0098 209.188 58.1089 209.436 58.3072C209.684 58.5551 209.783 58.8029 209.783 59.1499C209.783 59.5465 209.634 59.8439 209.287 60.0422C208.94 60.1909 208.444 60.29 207.85 60.29H207.255V66.0898C207.255 66.5855 207.255 66.9325 207.304 67.2299C207.354 67.4778 207.453 67.6761 207.602 67.8743C207.75 68.0231 207.998 68.1222 208.296 68.1222C208.494 68.1222 208.742 68.0726 209.089 68.0231C209.386 67.9239 209.634 67.9239 209.783 67.9239C210.08 67.9239 210.279 68.0231 210.477 68.2213C210.675 68.4196 210.774 68.6675 210.774 68.9649C210.774 69.4606 210.526 69.8572 209.981 70.1546C209.436 70.4024 208.593 70.5512 207.552 70.5512C206.61 70.5512 205.867 70.4024 205.322 70.0554C204.826 69.7085 204.479 69.2623 204.33 68.6675C204.181 68.0726 204.082 67.3291 204.082 66.3377V60.29H203.686C203.24 60.29 202.893 60.1909 202.645 59.943C202.397 59.7448 202.298 59.4473 202.298 59.1499C202.298 58.8029 202.397 58.5551 202.645 58.3072C202.942 58.1089 203.289 58.0098 203.735 58.0098ZM220.738 64.9001H214.591C214.591 65.6437 214.74 66.2881 215.037 66.8334C215.285 67.3786 215.682 67.7752 216.128 68.0231C216.624 68.3205 217.119 68.4692 217.665 68.4692C218.061 68.4692 218.408 68.4196 218.706 68.3205C219.053 68.2213 219.35 68.1222 219.598 67.9239C219.895 67.7256 220.193 67.5273 220.441 67.3291C220.688 67.0812 220.986 66.7838 221.382 66.4368C221.531 66.2881 221.779 66.2385 222.076 66.2385C222.423 66.2385 222.671 66.2881 222.869 66.4864C223.068 66.6846 223.167 66.9325 223.167 67.2299C223.167 67.5273 223.068 67.8743 222.82 68.2213C222.622 68.6179 222.275 68.9649 221.829 69.3119C221.382 69.6589 220.788 69.9563 220.143 70.2042C219.449 70.452 218.656 70.5512 217.764 70.5512C215.731 70.5512 214.195 69.9563 213.055 68.8162C211.914 67.6761 211.369 66.0898 211.369 64.107C211.369 63.1651 211.518 62.3224 211.766 61.5293C212.063 60.7362 212.46 60.0422 213.005 59.4473C213.501 58.9021 214.195 58.4559 214.938 58.1585C215.731 57.8611 216.574 57.7124 217.565 57.7124C218.755 57.7124 219.846 57.9602 220.738 58.4559C221.581 59.0012 222.275 59.6456 222.721 60.4883C223.117 61.331 223.365 62.1737 223.365 63.0164C223.365 63.8096 223.117 64.3053 222.671 64.5531C222.225 64.801 221.581 64.9001 220.738 64.9001ZM214.591 63.1156H220.292C220.242 62.025 219.945 61.2319 219.449 60.6866C218.904 60.1909 218.259 59.8935 217.417 59.8935C216.673 59.8935 216.029 60.1909 215.483 60.6866C214.988 61.2319 214.69 62.0746 214.591 63.1156ZM236.501 64.3548V68.5683C236.501 69.2127 236.353 69.7085 236.055 70.0554C235.758 70.4024 235.361 70.5512 234.866 70.5512C234.37 70.5512 234.023 70.4024 233.725 70.0554C233.428 69.7085 233.279 69.2127 233.279 68.5683V63.5121C233.279 62.719 233.23 62.1242 233.18 61.678C233.131 61.2319 232.982 60.8849 232.734 60.5875C232.486 60.3396 232.139 60.1909 231.594 60.1909C230.553 60.1909 229.909 60.5379 229.562 61.2319C229.215 61.9754 229.066 62.9669 229.066 64.3053V68.5683C229.066 69.2127 228.917 69.7085 228.62 70.0554C228.322 70.4024 227.926 70.5512 227.48 70.5512C226.984 70.5512 226.587 70.4024 226.29 70.0554C225.992 69.7085 225.844 69.2127 225.844 68.5683V59.5465C225.844 58.9516 225.943 58.5055 226.24 58.2081C226.488 57.8611 226.885 57.7124 227.331 57.7124C227.727 57.7124 228.124 57.8611 228.372 58.1585C228.669 58.4559 228.818 58.8525 228.818 59.3482V59.6456C229.363 59.0012 229.958 58.5055 230.603 58.2081C231.197 57.9107 231.891 57.7619 232.684 57.7619C233.478 57.7619 234.122 57.9107 234.717 58.2081C235.262 58.5551 235.758 59.0012 236.105 59.6456C236.65 59.0012 237.195 58.5055 237.84 58.2081C238.435 57.9107 239.129 57.7619 239.872 57.7619C240.715 57.7619 241.458 57.9107 242.103 58.2576C242.698 58.6046 243.193 59.1003 243.491 59.6952C243.739 60.29 243.887 61.1823 243.887 62.4216V68.5683C243.887 69.2127 243.739 69.7085 243.441 70.0554C243.144 70.4024 242.747 70.5512 242.252 70.5512C241.756 70.5512 241.359 70.4024 241.062 70.0554C240.764 69.7085 240.616 69.2127 240.616 68.5683V63.2643C240.616 62.5703 240.566 62.025 240.517 61.6284C240.467 61.2319 240.318 60.8849 240.07 60.5875C239.823 60.3396 239.426 60.1909 238.881 60.1909C238.484 60.1909 238.088 60.29 237.741 60.5379C237.344 60.7857 237.047 61.1327 236.848 61.5293C236.601 62.0746 236.501 63.0164 236.501 64.3548Z" fill="#CE1013"/>
</svg>
