<?xml version="1.0" encoding="utf-8"?>
<!-- Generator: Adobe Illustrator 25.2.1, SVG Export Plug-In . SVG Version: 6.00 Build 0)  -->
<svg version="1.1" id="Layer_1" xmlns="http://www.w3.org/2000/svg" xmlns:xlink="http://www.w3.org/1999/xlink" x="0px" y="0px"
	 viewBox="0 0 255.1 141.7" style="enable-background:new 0 0 255.1 141.7;" xml:space="preserve">
<style type="text/css">
	.st0{fill:#D52024;}
	.st1{fill-rule:evenodd;clip-rule:evenodd;fill:#DB160B;}
</style>
<g>
	<path class="st0" d="M204.3,112.6c-1.1,2.4-3.6,2.8-5.2,0.6c-1.5-2-2.9-4.2-4.3-6.3c-2-3-3.9-6-5.9-9c-0.1-0.1-0.1-0.2-0.4-0.4
		c0,0.4,0,0.7,0,0.9c0,4.3,0,8.7,0,13c0,0.5,0,1-0.2,1.5c-0.3,1.1-1,1.6-2.2,1.6c-1.1,0-1.8-0.6-2.1-1.7c-0.1-0.4-0.1-0.8-0.1-1.3
		c0-6.2,0-12.5,0-18.7c0-0.7,0.1-1.6,0.5-2.2c0.9-1.6,3.4-2,4.7-0.2c0.7,1.1,1.4,2.1,2.1,3.2c2.7,4.1,5.4,8.2,8.2,12.4
		c0.1,0.1,0.2,0.3,0.4,0.6c0-0.4,0-0.7,0-0.9c0-4.4,0-8.8,0-13.2c0-0.4,0-0.9,0.1-1.3c0.2-1.1,0.8-1.8,1.7-1.9
		c1.2-0.1,1.9,0.3,2.4,1.4c0,0.1,0.1,0.2,0.2,0.2C204.3,98.2,204.3,105.4,204.3,112.6z"/>
	<path class="st0" d="M51.1,91.6c0.5-1.5,1.7-1.9,3.1-1.9c2.5,0,5.1,0,7.6,0c6.1,0.1,8.9,4.1,9.7,8.2c0.7,3.4,0.6,6.7-0.6,10
		c-1.5,3.7-4.3,5.8-8.3,6.1c-2.8,0.2-5.7,0.1-8.5,0.1c-1.5,0-2.6-0.4-3-2C51.1,105.3,51.1,98.4,51.1,91.6z M56,110.3
		c1.7,0,3.4,0,5,0c2.7-0.1,4.5-1.3,5.3-3.9c0.8-2.6,0.9-5.2,0.3-7.8c-0.5-2.4-1.8-4.3-4.4-4.6c-2-0.3-4.1-0.2-6.1-0.2
		c0,0-0.1,0.1-0.1,0.1C56,99.2,56,104.7,56,110.3z"/>
	<path class="st0" d="M137.1,132.7c-0.2-0.1-0.4-0.1-0.6-0.2c-0.5-0.1-0.8-0.4-0.6-0.8c0.1-0.2,0.5-0.5,0.8-0.5
		c1.2,0,1.4-0.1,1.8-1.1c0.1-0.3,0.1-0.7,0-1c-0.7-1.8-1.4-3.5-2.1-5.3c-0.1-0.3-0.2-0.6-0.3-0.8c-0.2-0.5,0.1-0.9,0.5-1.1
		c0.5-0.2,0.9,0,1.1,0.5c0.3,0.9,0.6,1.8,1,2.7c0.3,0.8,0.6,1.7,1,2.7c0.5-1.4,0.9-2.5,1.3-3.6c0.2-0.6,0.4-1.1,0.6-1.7
		c0.2-0.5,0.5-0.7,1.1-0.6c0.5,0.2,0.6,0.6,0.5,1.1c-0.3,1-0.7,2-1.1,2.9c-0.5,1.4-1.1,2.9-1.6,4.3c-0.4,1.2-1,2.3-2.4,2.5
		C137.7,132.7,137.4,132.7,137.1,132.7z"/>
	<path class="st0" d="M162.9,103.4c-3.6,0-7.2,0-10.7,0c0,0.3,0,0.6,0,0.8c0,2.4,0,4.7,0,7.1c0,0.5,0,0.9-0.1,1.4
		c-0.2,1.1-1.1,1.8-2.2,1.9c-1.3,0-2.1-0.5-2.4-1.7c-0.1-0.5-0.2-1-0.2-1.5c0-6.3,0-12.6,0-18.8c0-0.4,0-0.8,0.1-1.3
		c0.3-1.3,1.1-2,2.4-1.9c1.2,0,2.2,0.8,2.2,2c0.1,1.6,0.1,3.3,0.1,4.9c0,0.8,0,1.7,0,2.5c0,0.4,0.1,0.5,0.5,0.5c3.3,0,6.5,0,9.8,0
		c0.5,0,0.5-0.3,0.5-0.7c0-2.1,0-4.2,0-6.3c0-0.5,0-0.9,0.2-1.4c0.3-1.2,1.1-1.7,2.4-1.7c1.1,0,1.9,0.7,2.2,1.8
		c0.1,0.5,0.1,0.9,0.1,1.4c0,6.3,0,12.5,0,18.8c0,0.4,0,0.7-0.1,1.1c-0.3,1.5-1.1,2.2-2.6,2.1c-1.2-0.1-2.1-1-2.2-2.4
		c0-2.1,0-4.1,0-6.2C162.9,105.1,162.9,104.3,162.9,103.4z"/>
	<path class="st0" d="M118.8,98.9c0,2.6,0.1,5.2,0,7.8c-0.2,4-2.7,6.8-6.7,7.6c-2.6,0.5-5.3,0.4-7.9-0.3c-2.9-0.8-4.7-2.8-5.3-5.8
		c-0.3-1.3-0.4-2.6-0.4-3.8c-0.1-4,0-7.9,0-11.9c0-0.4,0-0.9,0.1-1.3c0.2-1.1,1.1-1.7,2.2-1.8c1.2,0,2.1,0.5,2.3,1.6
		c0.1,0.5,0.2,1,0.2,1.5c0,3.9,0,7.8,0,11.8c0,1,0.1,2.1,0.4,3.1c0.4,1.9,1.8,3,3.7,3.2c0.9,0.1,1.8,0.1,2.7,0
		c2-0.2,3.3-1.4,3.7-3.4c0.2-0.9,0.3-1.9,0.3-2.8c0-3.9,0-7.8,0-11.8c0-0.4,0-0.9,0.1-1.3c0.3-1.3,1-2,2.3-2c1.3,0,2.1,0.7,2.3,2
		c0.1,0.4,0.1,0.8,0.1,1.3c0,2.1,0,4.2,0,6.3C118.9,98.9,118.8,98.9,118.8,98.9z"/>
	<path class="st0" d="M84.5,89.4c1.9-0.1,2.9,1.1,3.5,2.6c0.9,2.2,1.7,4.3,2.6,6.5c1.6,4.1,3.3,8.1,4.9,12.2c0.4,1,0.7,2-0.1,3
		c-1.1,1.3-3.1,1.2-3.8-0.4c-0.7-1.4-1.2-2.9-1.8-4.3c-0.2-0.5-0.4-0.7-1-0.7c-2.9,0-5.8,0-8.6,0c-0.5,0-0.7,0.2-0.9,0.6
		c-0.5,1.5-1.1,2.9-1.7,4.4c-0.4,0.9-1.1,1.3-2.1,1.3c-1-0.1-1.8-0.6-2-1.5c-0.2-0.6-0.1-1.4,0.1-2c0.6-1.9,1.4-3.7,2.1-5.6
		c1.8-4.5,3.5-8.9,5.3-13.4c0.1-0.3,0.3-0.7,0.5-1C82.2,90,83.2,89.3,84.5,89.4z M88.3,104.6c-1.2-3.4-2.4-6.7-3.6-9.9
		c-0.1,0-0.1,0-0.2,0c-1.2,3.3-2.3,6.6-3.6,9.9C83.4,104.6,85.7,104.6,88.3,104.6z"/>
	<path class="st0" d="M124.4,102.1c0-3,0-6,0-9c0-2.6,0.8-3.4,3.4-3.4c2.8,0,5.6,0,8.3,0.1c2,0.1,3.8,0.6,5.1,2.2
		c2,2.4,2.2,5.2,1.2,8c-0.9,2.8-3.1,4-5.8,4.3c-2.1,0.3-4.3,0.2-6.5,0.2c-0.7,0-1,0.1-1,0.9c0.1,2,0,4,0,6c0,0.5-0.1,1.1-0.2,1.5
		c-0.4,1.1-1.3,1.6-2.5,1.5c-1-0.1-1.8-0.8-2-1.9c-0.1-0.5-0.1-1-0.1-1.6C124.4,108.1,124.4,105.1,124.4,102.1z M129.2,97.1
		c0,1.1,0,2.1,0,3.2c0,0.2,0.3,0.6,0.4,0.6c1.9-0.1,3.9,0,5.8-0.4c1.8-0.3,2.7-1.7,2.6-3.6c-0.1-1.8-1-3.1-2.8-3.3
		c-1.8-0.2-3.7-0.2-5.6-0.3c-0.1,0-0.4,0.4-0.4,0.6C129.2,95.1,129.2,96.1,129.2,97.1z"/>
	<path class="st0" d="M178.2,101.9c0,3.2,0,6.3,0,9.5c0,0.5,0,1.1-0.2,1.6c-0.4,1.1-1.2,1.6-2.5,1.5c-1-0.1-1.8-0.8-2-1.9
		c-0.1-0.4-0.1-0.9-0.1-1.3c0-6.3,0-12.5,0-18.8c0-0.4,0-0.7,0.1-1.1c0.2-1.4,1.1-2.1,2.5-2.1c1.3,0,2.2,1,2.2,2.3
		c0.1,1.8,0,3.6,0,5.4C178.2,98.7,178.2,100.3,178.2,101.9z"/>
	<path class="st0" d="M168.3,122.9c1.9-1.4,2.8-1.4,4.6,0c0.7-0.7,1.5-1.2,2.6-1.1c1.2,0.1,2,0.7,2.1,1.9c0.1,1.7,0.1,3.3,0.1,5
		c0,0.5-0.3,1-0.9,1c-0.6,0-1-0.4-1-1c0-1.4,0-2.8-0.1-4.2c0-0.4-0.3-1-0.6-1.1c-0.4-0.1-1.1,0-1.3,0.3c-0.4,0.4-0.6,1-0.6,1.5
		c-0.1,1,0,1.9,0,2.9c0,0.2,0,0.4,0,0.6c0,0.6-0.3,1-1,1c-0.6,0-0.9-0.4-0.9-1c0-1,0-2,0-3.1c0-0.4,0-0.8-0.1-1.3
		c0-0.6-0.2-1-0.9-1.1c-0.8-0.1-1.3,0.2-1.5,0.9c-0.1,0.4-0.2,0.9-0.2,1.4c0,0.9,0,1.9,0,2.8c0,0.9-0.3,1.3-1,1.3
		c-0.6,0-0.9-0.4-0.9-1.3c0-1.8,0-3.5,0-5.3c0-0.6,0-1.2,0.7-1.3C167.9,121.7,168.1,122.2,168.3,122.9z"/>
	<path class="st0" d="M101.7,124.8c0,0.3-0.1,0.4-0.1,0.6c0,0.8,0,1.6,0,2.5c0.3,0,0.6,0,0.8,0c1.4,0,2.8,0,4.2,0c0.5,0,1,0.2,1,0.8
		c0,0.6-0.4,0.8-0.9,0.8c-2,0-4,0-6,0c-0.8,0-1.1-0.4-1.1-1.2c0-2.7,0-5.4,0-8.1c0-0.8,0.3-1.2,1.2-1.2c1.9,0,3.8,0,5.7,0
		c0.5,0,1,0.1,1,0.8c0,0.7-0.5,0.8-1,0.8c-1.6,0-3.1,0-4.7,0c0,0.9,0,1.7,0,2.7c0.5,0,1,0,1.4,0c0.9,0,1.8,0,2.7,0
		c0.6,0,1.2,0,1.2,0.8c0,0.7-0.6,0.7-1.1,0.7c-1.1,0-2.2,0-3.3,0C102.2,124.8,102,124.8,101.7,124.8z"/>
	<path class="st0" d="M131.1,129.7c-1.5,0-2.8-0.2-3.6-1.3c-0.4-0.5-0.6-1.1-0.7-1.7c0-0.3,0.3-0.8,0.6-0.9c0.3-0.1,0.7,0.2,1,0.4
		c0.2,0.1,0.2,0.4,0.3,0.7c0.7,1.4,2.3,1.8,3.6,1c1-0.6,1-1.9-0.1-2.4c-0.6-0.3-1.4-0.4-2-0.7c-0.7-0.2-1.3-0.4-1.9-0.7
		c-1.8-1.1-1.8-3.6,0.1-4.6c1.6-0.9,3.3-0.9,4.9,0c0.5,0.3,0.9,1,1.3,1.6c0.3,0.5,0,1-0.5,1.2c-0.6,0.3-1,0-1.2-0.5
		c-0.7-1.5-1.9-1.7-3-1.2c-0.4,0.2-0.9,0.7-0.9,1.1c0,0.3,0.4,0.9,0.8,1.1c1.1,0.4,2.2,0.7,3.3,1.1c2.7,0.9,2.4,3.9,1,5
		c-0.5,0.4-1.1,0.6-1.7,0.8C131.8,129.7,131.3,129.7,131.1,129.7z"/>
	<path class="st0" d="M79.9,123.4c1.1,0,2.1,0,3.1,0c0.6,0,1.3-0.1,1.3,0.7c0,0.9-0.7,0.8-1.3,0.8c-0.8,0-1.6,0-2.5,0
		c-0.5,0-0.7,0.1-0.7,0.7c0,1,0,1.9,0,2.9c0,0.8-0.4,1.2-1,1.2c-0.6,0-1-0.4-1-1.2c0-2.7,0-5.5,0-8.2c0-0.9,0.4-1.2,1.3-1.2
		c1.6,0,3.3,0,4.9,0c0.5,0,1,0.1,1,0.8c0,0.7-0.5,0.8-1,0.8c-1.1,0-2.3,0-3.4,0c-0.5,0-0.8,0.1-0.7,0.7
		C79.9,122,79.9,122.6,79.9,123.4z"/>
	<path class="st0" d="M159.3,126.2c0,1,0.3,1.7,1.1,2.1c0.8,0.4,1.6,0.2,2.2-0.3c0.3-0.2,0.5-0.5,0.9-0.7c0.2-0.1,0.7-0.2,0.9,0
		c0.2,0.1,0.2,0.6,0.1,0.8c-0.3,0.8-1,1.2-1.8,1.4c-1.7,0.5-3.6,0-4.5-1.1c-1-1.3-1.1-3.4-0.3-4.9c0.7-1.3,2.3-1.9,4-1.6
		c1.4,0.2,2.5,1.2,2.7,2.6c0.3,1.2-0.1,1.7-1.3,1.7c-1.1,0-2.1,0-3.2,0C159.9,126.2,159.7,126.2,159.3,126.2z M162.9,125.1
		c0.1-1.2-0.5-1.9-1.6-2c-1.1-0.1-1.9,0.7-1.9,2C160.6,125.1,161.7,125.1,162.9,125.1z"/>
	<path class="st0" d="M117.6,125.7c0-2.4,1.6-3.9,4-3.9c2.3,0,3.8,1.7,3.8,4.1c-0.1,2.4-1.6,3.9-4,3.8
		C119,129.7,117.5,128.1,117.6,125.7z M123.4,125.7c0-1.5-0.8-2.5-2-2.5c-1.2,0-1.9,1-2,2.5c0,1.5,0.7,2.6,1.8,2.6
		C122.6,128.4,123.4,127.4,123.4,125.7z"/>
	<path class="st0" d="M92.3,123c0.8-0.9,1.7-1.3,2.9-1.2c1.2,0.1,2.1,1,2.1,2.2c0.1,1.6,0,3.1,0,4.7c0,0.6-0.2,1-0.9,1
		c-0.7,0-1-0.4-1-1c0-1,0-2,0-3c0-0.3,0-0.6,0-1c-0.1-0.7-0.2-1.3-1-1.4c-0.8-0.1-1.5,0.2-1.8,1c-0.1,0.3-0.2,0.7-0.2,1
		c0,1.1,0,2.2-0.1,3.3c0,0.8-0.4,1.2-0.9,1.2c-0.6,0-0.9-0.4-0.9-1.2c0-1.8,0-3.5,0-5.3c0-0.6-0.1-1.2,0.7-1.4
		C91.9,121.7,92.1,122.3,92.3,123z"/>
	<path class="st0" d="M147.3,121.7c0.7,0.2,1.4,0.3,2.1,0.6c0.4,0.2,0.7,0.5,0.8,0.9c0.1,0.2,0,0.8-0.2,0.9c-0.2,0.2-0.7,0.1-1,0
		c-0.2-0.1-0.4-0.4-0.6-0.6c-0.5-0.6-1.2-0.7-1.9-0.4c-0.3,0.1-0.6,0.4-0.6,0.7c0,0.2,0.3,0.6,0.5,0.7c0.5,0.2,1,0.3,1.6,0.5
		c0.5,0.2,1.1,0.3,1.6,0.6c0.7,0.3,1.1,0.9,1.1,1.7c0,0.9-0.4,1.6-1.1,2c-1.5,0.7-3,0.7-4.5-0.1c-0.4-0.2-0.7-0.6-0.9-1
		c-0.2-0.4-0.2-0.8,0.3-1.1c0.5-0.2,0.8-0.1,1.1,0.4c0.5,0.9,1.3,1.3,2.2,1.1c0.5-0.1,1-0.2,1.1-0.8c0.1-0.6-0.4-0.9-0.9-1
		c-0.7-0.2-1.3-0.4-2-0.6c-1.4-0.5-1.9-1.1-1.8-2.2c0.1-1,1-1.8,2.2-2c0.3,0,0.5,0,0.8-0.1C147.3,121.8,147.3,121.7,147.3,121.7z"/>
	<path class="st0" d="M112.9,121.8c1.1,0.1,2.3,0.4,3,1.6c0.3,0.4,0.4,1-0.1,1.3c-0.6,0.4-1,0.1-1.3-0.4c-0.5-0.8-1.2-1.2-2.2-1
		c-1,0.2-1.4,1-1.4,1.9c0,0.6,0,1.4,0.2,2c0.5,1.4,2.3,1.6,3.3,0.4c0.2-0.2,0.3-0.5,0.5-0.7c0.3-0.2,0.8-0.4,0.9-0.3
		c0.3,0.2,0.5,0.7,0.4,1c-0.2,1-1,1.6-1.9,1.9c-1.8,0.6-3.7,0.1-4.6-1.2c-1-1.4-0.9-3-0.2-4.5C110,122.3,111.3,121.8,112.9,121.8z"
		/>
	<path class="st0" d="M152.7,123.5c-0.3-0.3-0.6-0.6-0.9-0.9c0.3-0.3,0.6-0.6,0.9-0.9c0.1,0,0.2,0.1,0.2,0.1c0-0.6,0-1.1,0-1.7
		c0-0.6,0.2-1,0.9-1.1c0.7,0,0.9,0.4,0.9,1c0,0.2,0,0.4,0,0.6c0,0.7-0.1,1.4,1,1.3c0.2,0,0.5,0.4,0.5,0.6c0,0.2-0.3,0.5-0.5,0.6
		c-0.2,0.1-0.6,0.1-1,0.1c0,1.5,0,2.9,0,4.4c0,0.2,0.4,0.4,0.6,0.5c0.2,0.1,0.5-0.1,0.7-0.1c0.3,0.1,0.6,0.2,0.7,0.4
		c0.1,0.2-0.1,0.6-0.3,0.7c-0.9,0.5-1.9,0.5-2.8,0.2c-0.8-0.3-0.9-1.1-0.9-1.8c0-1.3,0-2.5,0-3.8c0-0.2,0-0.3-0.1-0.5
		C152.8,123.4,152.7,123.5,152.7,123.5z"/>
	<path class="st0" d="M88.4,125.7c0,0.9,0,1.9,0,2.8c0,0.8-0.4,1.2-1,1.1c-0.7-0.1-0.9-0.5-0.9-1.1c0-1.9,0-3.7,0-5.6
		c0-0.8,0.4-1.2,1-1.1c0.7,0,0.9,0.5,0.9,1.1C88.4,123.9,88.4,124.8,88.4,125.7z"/>
	<path class="st0" d="M87.5,120.8c-0.7,0-1.1-0.4-1-0.9c0.1-0.6,0.4-0.9,1-0.8c0.6,0,0.9,0.3,0.9,0.9
		C88.3,120.5,88,120.8,87.5,120.8z"/>
</g>
<path class="st1" d="M106.2,59.7c0.3,2.6,2.1,4.2,4.9,4.2h12.6c10.5,0,18.7-4.4,23-12.4l0,0l0,0l0,0l0,0l0,0l0,0l0,0l0,0l0,0l0,0
	l0,0l0,0l0,0l0,0l0,0l0,0l0,0l0,0l0,0l0,0v0l0,0l0,0l0,0l0,0l0,0l0,0l0,0l0,0l0,0l0,0l0,0l0,0l0,0l0,0l0,0l0,0l0,0l0,0l0,0l0,0l0,0
	l0,0l0,0l0,0l0,0l0,0l0,0l0,0l0,0l0,0l0,0l0,0l0,0l0,0l0,0l0,0l0,0l0,0l0,0l0,0l0,0l0,0l0,0l0,0l0,0l0,0l0,0l0,0l0,0l0,0l0,0l0,0
	l0,0l0,0l0,0l0,0l0,0l0,0l0,0l0,0l0,0l0,0l0,0l0,0c-0.7-0.7-1.4-1.4-2.2-2c-1.6-1.5-2.3-4.4-4.4-3.2c-3.9,2.3-6,5.1-10.1,4.1
	c-0.8-0.2-1.5-0.6-2.2-1c-0.3-0.2-0.6-0.4-0.8-0.8c-0.2-0.4-0.1-0.8,0.2-1c0.3-0.3,0.7-0.4,1.1-0.6c0.4-0.1,0.8-0.2,1.1-0.4
	c0.7-0.3,1.4-0.7,2-1.2c0.2-0.2,0.4-0.4,0.6-0.6c-1.1,0.1-2.2,0.2-3.3,0.3c-1.5,0.2-3,0.4-4.4,0.6c-2.6,0.5-5.1,1.2-7.4,2.5
	c-2.1,1.2-4.1,2.7-5.7,4.5c-1.7,1.9-3,4.1-3.9,6.5l0,0l0,0l0,0l0,0l0,0l0,0l0,0l0,0l0,0l0,0l0,0l0,0l0,0l0,0l0,0l0,0l0,0l0,0l0,0
	l0,0l0,0l0,0l0,0l0,0l0,0l0,0l0,0l0,0l0,0l0,0l0,0l0,0l0,0l0,0l0,0l0,0l0,0l0,0l0,0l0,0l0,0l0,0l0,0l0,0l0,0l0,0l0,0l0,0l0,0l0,0
	l0,0l0,0l0,0l0,0l0,0l0,0l0,0l0,0l0,0l0,0l0,0l0,0l0,0l0,0l0,0l0,0L106.2,59.7L106.2,59.7L106.2,59.7L106.2,59.7L106.2,59.7
	L106.2,59.7L106.2,59.7L106.2,59.7z M106.2,46L106.2,46L106.2,46L106.2,46l0-31.2c0-2.7,1.6-4.5,4.2-4.9V9.9h13.3
	c14,0,23.8,7.9,25.9,21.3l0,0l0,0l0,0l0,0l0,0l0,0l0,0l0,0l0,0l0,0l0,0l0,0l0,0l0,0l0,0l0,0l0,0l0,0l0,0l0,0l0,0l0,0l0,0l0,0l0,0
	l0,0l0,0l0,0l0,0l0,0l0,0l0,0l0,0l0,0l0,0l0,0l0,0l0,0l0,0l0,0l0,0l0,0l0,0l0,0l0,0l0,0l0,0l0,0l0,0l0,0l0,0l0,0l0,0l0,0l0,0l0,0
	l0,0l0,0l0,0l0,0l0,0l0,0l0,0l0,0l0,0l0,0l0,0l0,0l0,0l0,0l0,0l0,0l0,0l0,0l0,0l0,0l0,0l0,0l0,0l0,0l0,0l0,0l0,0l0,0l0,0
	c-1.5-1.5-3.2-2.8-5.1-3.8c-1.9-1-3.9-1.8-6-2.2c-1.1-0.2-2.3-0.4-3.5-0.4c-0.5,0-1.1,0.1-1.6,0.1c-0.4,0-0.7,0.1-1.1,0.1
	c-0.8,0.1-1.7,0.4-2.5,0.5c-0.3,0-0.5,0.1-0.8,0.1c0,0-0.1,0-0.1,0c-0.3,0-0.5-0.1-0.7-0.2c-0.4-0.3-0.8-0.7-1.2-1
	c-1.5-1.1-3.1-2-4.9-2.2c-1.7-0.2-3.5,0.1-4.9,1.2c0,0,0,0,0,0c0,0,0,0,0,0c0,0,0,0-0.1,0c-0.1,0.1-0.1,0.1-0.1,0.2c0.3,0,0.7,0,1,0
	c0.8,0.1,1.5,0.3,2,0.5c0.5,0.3,0.8,0.6,1,1.2c0.2,0.6,0.4,1.6,0.3,2.6c-0.1,1-0.5,2.1-1.3,3.2c-0.8,1.1-2.1,2.2-3.4,3.5
	c-1.3,1.2-2.7,2.6-4.3,4.6C110,40.7,108.1,43.4,106.2,46L106.2,46z M107.3,50.2c2.3-3.8,4.6-7.6,7.2-10.9c2.5-3.3,5.3-6.1,8.5-8.2
	c3.1-2,6.6-3.3,10-3.5c3.4-0.2,6.8,0.6,9.5,1.8c2.7,1.2,4.7,2.9,6.6,4.5c-1.7-1.1-3.4-2.1-6-2.9c-2.5-0.8-5.9-1.4-10-0.5
	c-4.2,0.9-9.2,3.2-13.6,6.7C115.1,40.8,111.2,45.5,107.3,50.2z"/>
</svg>
