<svg width="97" height="16" viewBox="0 0 97 16" fill="none" xmlns="http://www.w3.org/2000/svg">
<path d="M18.5645 12.7984V3.16395H24.3509V4.19889H19.7331V7.45427H23.9174V8.48922H19.7331V12.7984H18.5645Z" fill="#83F488"/>
<path d="M26.3524 12.7984V3.16395H27.521V11.7634H32.0069V12.7984H26.3524Z" fill="#83F488"/>
<path d="M34.8212 12.7984H33.596L37.1395 3.16395H38.3458L41.8893 12.7984H40.6642L37.7804 4.68814H37.705L34.8212 12.7984ZM35.2735 9.03491H40.2118V10.0699H35.2735V9.03491Z" fill="#83F488"/>
<path d="M48.67 5.57255C48.6134 5.09585 48.3841 4.72578 47.982 4.46233C47.5799 4.19889 47.0867 4.06717 46.5024 4.06717C46.0752 4.06717 45.7014 4.13617 45.3809 4.27416C45.0637 4.41215 44.8155 4.60189 44.6364 4.84338C44.4605 5.08487 44.3726 5.35929 44.3726 5.66664C44.3726 5.9238 44.4338 6.14491 44.5563 6.32994C44.682 6.51184 44.8422 6.66395 45.037 6.78626C45.2317 6.90543 45.4359 7.00422 45.6495 7.08263C45.8631 7.1579 46.0595 7.21905 46.2385 7.2661L47.2187 7.52954C47.47 7.5954 47.7495 7.68635 48.0574 7.80239C48.3684 7.91843 48.6653 8.07681 48.948 8.27752C49.2339 8.4751 49.4695 8.72914 49.6548 9.03962C49.8401 9.3501 49.9328 9.73115 49.9328 10.1828C49.9328 10.7034 49.7962 11.1738 49.5229 11.5941C49.2527 12.0143 48.8569 12.3483 48.3354 12.5961C47.8171 12.8438 47.1872 12.9677 46.4459 12.9677C45.7548 12.9677 45.1563 12.8564 44.6506 12.6337C44.148 12.411 43.7521 12.1006 43.4631 11.7023C43.1773 11.304 43.0155 10.8414 42.9778 10.3145H44.1841C44.2155 10.6783 44.338 10.9794 44.5516 11.2177C44.7684 11.4529 45.0417 11.6286 45.3715 11.7446C45.7045 11.8575 46.0626 11.9139 46.4459 11.9139C46.892 11.9139 47.2925 11.8418 47.6475 11.6975C48.0024 11.5501 48.2836 11.3463 48.4909 11.086C48.6982 10.8225 48.8019 10.5152 48.8019 10.1639C48.8019 9.84405 48.7124 9.58375 48.5333 9.38303C48.3543 9.18232 48.1187 9.01923 47.8265 8.89379C47.5344 8.76834 47.2187 8.65857 46.8794 8.56449L45.6919 8.22577C44.938 8.00938 44.3411 7.70046 43.9014 7.29903C43.4616 6.89759 43.2417 6.37228 43.2417 5.72309C43.2417 5.18366 43.3877 4.71323 43.6799 4.3118C43.9752 3.90723 44.371 3.59361 44.8673 3.37094C45.3668 3.14513 45.9244 3.03223 46.5401 3.03223C47.1621 3.03223 47.715 3.14356 48.1988 3.36623C48.6825 3.58577 49.0658 3.88684 49.3485 4.26946C49.6344 4.65207 49.7852 5.08644 49.8009 5.57255H48.67Z" fill="#83F488"/>
<path d="M51.8542 12.7984V3.16395H53.0228V7.45427H58.1684V3.16395H59.3369V12.7984H58.1684V8.48922H53.0228V12.7984H51.8542Z" fill="#83F488"/>
<path d="M69.442 6.1747H68.2734C68.2043 5.83913 68.0833 5.54432 67.9106 5.29029C67.7409 5.03626 67.5336 4.823 67.2886 4.65051C67.0467 4.47488 66.7781 4.34316 66.4828 4.25534C66.1875 4.16753 65.8797 4.12362 65.5592 4.12362C64.9749 4.12362 64.4456 4.27103 63.9713 4.56583C63.5001 4.86063 63.1247 5.295 62.8451 5.86892C62.5686 6.44285 62.4304 7.14692 62.4304 7.98115C62.4304 8.81538 62.5686 9.51946 62.8451 10.0934C63.1247 10.6673 63.5001 11.1017 63.9713 11.3965C64.4456 11.6913 64.9749 11.8387 65.5592 11.8387C65.8797 11.8387 66.1875 11.7948 66.4828 11.707C66.7781 11.6191 67.0467 11.489 67.2886 11.3165C67.5336 11.1409 67.7409 10.926 67.9106 10.672C68.0833 10.4148 68.2043 10.12 68.2734 9.7876H69.442C69.354 10.28 69.1938 10.7206 68.9614 11.1095C68.7289 11.4984 68.4399 11.8293 68.0943 12.1021C67.7488 12.3718 67.3608 12.5773 66.9305 12.7184C66.5032 12.8595 66.0462 12.9301 65.5592 12.9301C64.7362 12.9301 64.0043 12.7294 63.3634 12.3279C62.7226 11.9265 62.2184 11.3557 61.8508 10.6156C61.4833 9.87542 61.2995 8.99728 61.2995 7.98115C61.2995 6.96502 61.4833 6.08689 61.8508 5.34674C62.2184 4.6066 62.7226 4.03581 63.3634 3.63438C64.0043 3.23294 64.7362 3.03223 65.5592 3.03223C66.0462 3.03223 66.5032 3.10279 66.9305 3.24392C67.3608 3.38505 67.7488 3.59204 68.0943 3.86489C68.4399 4.1346 68.7289 4.4639 68.9614 4.85279C69.1938 5.23854 69.354 5.67918 69.442 6.1747Z" fill="#83F488"/>
<path d="M71.7262 12.7984H70.501L74.0445 3.16395H75.2508L78.7943 12.7984H77.5691L74.6854 4.68814H74.61L71.7262 12.7984ZM72.1785 9.03491H77.1168V10.0699H72.1785V9.03491Z" fill="#83F488"/>
<path d="M85.575 5.57255C85.5184 5.09585 85.2891 4.72578 84.887 4.46233C84.4849 4.19889 83.9917 4.06717 83.4074 4.06717C82.9802 4.06717 82.6064 4.13617 82.2859 4.27416C81.9687 4.41215 81.7205 4.60189 81.5414 4.84338C81.3655 5.08487 81.2775 5.35929 81.2775 5.66664C81.2775 5.9238 81.3388 6.14491 81.4613 6.32994C81.587 6.51184 81.7472 6.66395 81.942 6.78626C82.1367 6.90543 82.3409 7.00422 82.5545 7.08263C82.7681 7.1579 82.9645 7.21905 83.1435 7.2661L84.1236 7.52954C84.375 7.5954 84.6545 7.68635 84.9624 7.80239C85.2734 7.91843 85.5703 8.07681 85.853 8.27752C86.1388 8.4751 86.3745 8.72914 86.5598 9.03962C86.7451 9.3501 86.8378 9.73115 86.8378 10.1828C86.8378 10.7034 86.7011 11.1738 86.4278 11.5941C86.1577 12.0143 85.7619 12.3483 85.2404 12.5961C84.7221 12.8438 84.0922 12.9677 83.3509 12.9677C82.6598 12.9677 82.0613 12.8564 81.5556 12.6337C81.0529 12.411 80.6571 12.1006 80.3681 11.7023C80.0823 11.304 79.9205 10.8414 79.8828 10.3145H81.0891C81.1205 10.6783 81.243 10.9794 81.4566 11.2177C81.6734 11.4529 81.9467 11.6286 82.2765 11.7446C82.6095 11.8575 82.9676 11.9139 83.3509 11.9139C83.7969 11.9139 84.1975 11.8418 84.5524 11.6975C84.9074 11.5501 85.1886 11.3463 85.3959 11.086C85.6032 10.8225 85.7069 10.5152 85.7069 10.1639C85.7069 9.84405 85.6174 9.58375 85.4383 9.38303C85.2593 9.18232 85.0237 9.01923 84.7315 8.89379C84.4394 8.76834 84.1236 8.65857 83.7844 8.56449L82.5969 8.22577C81.843 8.00938 81.2461 7.70046 80.8063 7.29903C80.3666 6.89759 80.1467 6.37228 80.1467 5.72309C80.1467 5.18366 80.2927 4.71323 80.5849 4.3118C80.8802 3.90723 81.276 3.59361 81.7723 3.37094C82.2718 3.14513 82.8294 3.03223 83.4451 3.03223C84.0671 3.03223 84.62 3.14356 85.1038 3.36623C85.5875 3.58577 85.9708 3.88684 86.2535 4.26946C86.5394 4.65207 86.6902 5.08644 86.7059 5.57255H85.575Z" fill="#83F488"/>
<path d="M88.7592 12.7984V3.16395H89.9277V7.45427H95.0733V3.16395H96.2419V12.7984H95.0733V8.48922H89.9277V12.7984H88.7592Z" fill="#83F488"/>
<path d="M13.4626 6.41411L15.1774 7.7414L14.7642 8.32466C14.7642 8.32466 14.2801 7.96269 14.1033 7.83195L14.1035 7.87711C14.1035 11.142 11.5889 13.8212 8.38584 14.094V13.1847C11.0244 12.9214 13.0977 10.746 13.1926 8.06814L12.7875 8.66156L12.2178 8.2393L13.4626 6.41411ZM2.21477 9.34756L0.5 8.02004L0.913226 7.43701C0.913226 7.43701 1.39735 7.79898 1.57416 7.92972L1.57394 7.88456C1.57394 4.6194 4.08852 1.94043 7.29158 1.66766V2.5763C4.65303 2.84004 2.57968 5.01569 2.48484 7.6933L2.88994 7.10011L3.45965 7.52237L2.21477 9.34756ZM6.19755 9.6244L7.8649 8.82821L6.18739 9.62937L5.67932 9.84975L6.19755 9.6244ZM3.86316 10.6399L6.04626 10.5999L1.99755 15.4468L5.57884 11.936L1.99258 15.4518L10.6297 8.65908H8.21942L11.7691 5.19972H9.61106L13.695 0.323206V0.322754L5.01274 7.20601L7.38755 7.18095L3.86723 10.636L3.85819 10.6401H3.86316V10.6399ZM7.78113 6.14472L7.7809 6.14495L9.55868 5.22682L7.78113 6.14472Z" fill="#83F488"/>
</svg>
