<svg width="339" height="75" viewBox="0 0 339 75" fill="none" xmlns="http://www.w3.org/2000/svg">
<path d="M62 53.4205V20.4508H81.8897V23.9924H66.0168V35.1326H80.3995V38.6742H66.0168V53.4205H62Z" fill="black"/>
<path d="M88.7692 53.4205V20.4508H92.786V49.8788H108.205V53.4205H88.7692Z" fill="black"/>
<path d="M117.879 53.4205H113.668L125.848 20.4508H129.994L142.174 53.4205H137.963L128.05 25.6667H127.791L117.879 53.4205ZM119.434 40.5417H136.408V44.0833H119.434V40.5417Z" fill="black"/>
<path d="M165.481 28.6932C165.287 27.0619 164.499 25.7955 163.117 24.8939C161.734 23.9924 160.039 23.5417 158.031 23.5417C156.562 23.5417 155.277 23.7778 154.176 24.25C153.085 24.7222 152.232 25.3715 151.617 26.1979C151.012 27.0243 150.71 27.9634 150.71 29.0152C150.71 29.8952 150.92 30.6518 151.341 31.285C151.773 31.9075 152.324 32.428 152.994 32.8466C153.663 33.2544 154.365 33.5925 155.099 33.8608C155.833 34.1184 156.508 34.3277 157.124 34.4886L160.493 35.3902C161.356 35.6155 162.317 35.9268 163.376 36.3239C164.445 36.721 165.465 37.2629 166.437 37.9498C167.419 38.6259 168.229 39.4953 168.866 40.5578C169.503 41.6203 169.822 42.9242 169.822 44.4697C169.822 46.2513 169.352 47.8611 168.413 49.2992C167.484 50.7374 166.124 51.8804 164.331 52.7282C162.55 53.5761 160.385 54 157.836 54C155.461 54 153.404 53.619 151.665 52.857C149.938 52.095 148.577 51.0325 147.584 49.6695C146.601 48.3065 146.045 46.7235 145.916 44.9205H150.062C150.17 46.1654 150.591 47.1957 151.325 48.0114C152.07 48.8163 153.01 49.4173 154.144 49.8144C155.288 50.2008 156.519 50.3939 157.836 50.3939C159.37 50.3939 160.746 50.1471 161.967 49.6534C163.187 49.149 164.153 48.4514 164.866 47.5606C165.578 46.6591 165.935 45.6073 165.935 44.4053C165.935 43.3106 165.627 42.4198 165.012 41.733C164.396 41.0461 163.586 40.488 162.582 40.0587C161.578 39.6294 160.493 39.2538 159.326 38.9318L155.245 37.7727C152.653 37.0322 150.602 35.9751 149.09 34.6013C147.578 33.2276 146.823 31.4299 146.823 29.2083C146.823 27.3624 147.325 25.7525 148.329 24.3788C149.344 22.9943 150.704 21.9211 152.41 21.1591C154.127 20.3864 156.044 20 158.16 20C160.298 20 162.199 20.381 163.862 21.143C165.524 21.8943 166.842 22.9246 167.814 24.2339C168.796 25.5432 169.315 27.0297 169.369 28.6932H165.481Z" fill="black"/>
<path d="M176.426 53.4205V20.4508H180.443V35.1326H198.13V20.4508H202.147V53.4205H198.13V38.6742H180.443V53.4205H176.426Z" fill="black"/>
<path d="M246.881 30.7538H242.864C242.626 29.6054 242.211 28.5966 241.617 27.7273C241.034 26.858 240.321 26.1282 239.479 25.5379C238.647 24.9369 237.724 24.4861 236.709 24.1856C235.694 23.8851 234.636 23.7348 233.534 23.7348C231.526 23.7348 229.707 24.2393 228.076 25.2481C226.456 26.2569 225.166 27.7434 224.205 29.7074C223.255 31.6714 222.78 34.0808 222.78 36.9356C222.78 39.7904 223.255 42.1998 224.205 44.1638C225.166 46.1278 226.456 47.6143 228.076 48.6231C229.707 49.6319 231.526 50.1364 233.534 50.1364C234.636 50.1364 235.694 49.9861 236.709 49.6856C237.724 49.3851 238.647 48.9397 239.479 48.3494C240.321 47.7484 241.034 47.0133 241.617 46.1439C242.211 45.2639 242.626 44.2551 242.864 43.1174H246.881C246.578 44.8024 246.028 46.3103 245.229 47.6411C244.43 48.9719 243.436 50.1042 242.248 51.0379C241.061 51.9609 239.727 52.6638 238.248 53.1468C236.779 53.6297 235.208 53.8712 233.534 53.8712C230.705 53.8712 228.19 53.1843 225.987 51.8106C223.784 50.4369 222.051 48.4836 220.788 45.9508C219.524 43.4179 218.893 40.4129 218.893 36.9356C218.893 33.4583 219.524 30.4533 220.788 27.9205C222.051 25.3876 223.784 23.4343 225.987 22.0606C228.19 20.6869 230.705 20 233.534 20C235.208 20 236.779 20.2415 238.248 20.7244C239.727 21.2074 241.061 21.9157 242.248 22.8494C243.436 23.7724 244.43 24.8993 245.229 26.2301C246.028 27.5502 246.578 29.0581 246.881 30.7538Z" fill="black"/>
<path d="M254.732 53.4205H250.521L262.701 20.4508H266.847L279.027 53.4205H274.816L264.904 25.6667H264.644L254.732 53.4205ZM256.287 40.5417H273.261V44.0833H256.287V40.5417Z" fill="black"/>
<path d="M302.334 28.6932C302.14 27.0619 301.352 25.7955 299.97 24.8939C298.588 23.9924 296.892 23.5417 294.884 23.5417C293.415 23.5417 292.13 23.7778 291.029 24.25C289.938 24.7222 289.085 25.3715 288.47 26.1979C287.865 27.0243 287.563 27.9634 287.563 29.0152C287.563 29.8952 287.773 30.6518 288.195 31.285C288.626 31.9075 289.177 32.428 289.847 32.8466C290.516 33.2544 291.218 33.5925 291.952 33.8608C292.686 34.1184 293.361 34.3277 293.977 34.4886L297.346 35.3902C298.21 35.6155 299.171 35.9268 300.229 36.3239C301.298 36.721 302.318 37.2629 303.29 37.9498C304.273 38.6259 305.082 39.4953 305.72 40.5578C306.357 41.6203 306.675 42.9242 306.675 44.4697C306.675 46.2513 306.205 47.8611 305.266 49.2992C304.337 50.7374 302.977 51.8804 301.184 52.7282C299.403 53.5761 297.238 54 294.689 54C292.314 54 290.257 53.619 288.519 52.857C286.791 52.095 285.43 51.0325 284.437 49.6695C283.454 48.3065 282.898 46.7235 282.769 44.9205H286.915C287.023 46.1654 287.444 47.1957 288.178 48.0114C288.923 48.8163 289.863 49.4173 290.997 49.8144C292.141 50.2008 293.372 50.3939 294.689 50.3939C296.223 50.3939 297.6 50.1471 298.82 49.6534C300.04 49.149 301.006 48.4514 301.719 47.5606C302.432 46.6591 302.788 45.6073 302.788 44.4053C302.788 43.3106 302.48 42.4198 301.865 41.733C301.249 41.0461 300.439 40.488 299.435 40.0587C298.431 39.6294 297.346 39.2538 296.18 38.9318L292.098 37.7727C289.507 37.0322 287.455 35.9751 285.943 34.6013C284.432 33.2276 283.676 31.4299 283.676 29.2083C283.676 27.3624 284.178 25.7525 285.182 24.3788C286.197 22.9943 287.558 21.9211 289.264 21.1591C290.98 20.3864 292.897 20 295.013 20C297.151 20 299.052 20.381 300.715 21.143C302.378 21.8943 303.695 22.9246 304.667 24.2339C305.649 25.5432 306.168 27.0297 306.222 28.6932H302.334Z" fill="black"/>
<path d="M313.279 53.4205V20.4508H317.296V35.1326H334.983V20.4508H339V53.4205H334.983V38.6742H317.296V53.4205H313.279Z" fill="black"/>
<path d="M44.1585 31.9366L50 36.4986L48.5923 38.5033C48.5923 38.5033 46.9431 37.2592 46.3408 36.8099L46.3415 36.9651C46.3415 48.187 37.7754 57.3956 26.8638 58.3332V55.2078C35.8523 54.3028 42.9154 46.8257 43.2385 37.6217L41.8585 39.6613L39.9177 38.21L44.1585 31.9366ZM5.84154 42.0192L0 37.4564L1.40769 35.4524C1.40769 35.4524 3.05692 36.6965 3.65923 37.1459L3.65846 36.9907C3.65846 25.768 12.2246 16.5601 23.1362 15.6226V18.7457C14.1477 19.6522 7.08462 27.1301 6.76154 36.3333L8.14154 34.2944L10.0823 35.7458L5.84154 42.0192ZM19.4092 42.9707L25.0892 40.2341L19.3746 42.9878L17.6438 43.7453L19.4092 42.9707ZM11.4569 46.4609L18.8938 46.3235L5.10154 62.9829L17.3015 50.9158L5.08462 63L34.5077 39.6528H26.2969L38.3892 27.7626H31.0377L44.95 11.0016V11L15.3731 34.6584L23.4631 34.5723L11.4708 46.4477L11.44 46.4617H11.4569V46.4609ZM24.8038 31.0107L24.8031 31.0115L30.8592 27.8558L24.8038 31.0107Z" fill="black"/>
</svg>
