<svg width="176" height="41" viewBox="0 0 176 41" fill="none" xmlns="http://www.w3.org/2000/svg">
<path d="M33.1672 29.3478V11.8161H43.8072V13.6994H35.316V19.6232H43.0101V21.5065H35.316V29.3478H33.1672Z" fill="black"/>
<path d="M47.4875 29.3478V11.8161H49.6363V27.4645H57.885V29.3478H47.4875Z" fill="black"/>
<path d="M63.0599 29.3478H60.8071L67.3228 11.8161H69.5409L76.0567 29.3478H73.8039L68.5012 14.5897H68.3625L63.0599 29.3478ZM63.8916 22.4995H72.9721V24.3827H63.8916V22.4995Z" fill="black"/>
<path d="M88.5249 16.199C88.421 15.3316 87.9993 14.6582 87.2599 14.1788C86.5205 13.6994 85.6137 13.4597 84.5392 13.4597C83.7537 13.4597 83.0663 13.5853 82.4771 13.8364C81.8937 14.0875 81.4373 14.4327 81.1081 14.8722C80.7846 15.3116 80.6229 15.811 80.6229 16.3702C80.6229 16.8382 80.7355 17.2405 80.9608 17.5772C81.1918 17.9082 81.4864 18.185 81.8446 18.4076C82.2027 18.6245 82.5782 18.8042 82.971 18.9469C83.3638 19.0839 83.7248 19.1952 84.054 19.2808L85.8563 19.7601C86.3184 19.88 86.8325 20.0455 87.3985 20.2566C87.9704 20.4678 88.5163 20.756 89.0361 21.1212C89.5618 21.4808 89.995 21.943 90.3358 22.508C90.6766 23.073 90.847 23.7664 90.847 24.5882C90.847 25.5355 90.5958 26.3916 90.0932 27.1563C89.5965 27.921 88.8686 28.5288 87.9098 28.9797C86.9567 29.4305 85.7985 29.6559 84.4353 29.6559C83.1645 29.6559 82.0641 29.4533 81.1341 29.0481C80.2099 28.643 79.482 28.078 78.9506 27.3532C78.425 26.6284 78.1275 25.7866 78.0582 24.8279H80.2763C80.3341 25.4899 80.5593 26.0377 80.9521 26.4715C81.3507 26.8995 81.8532 27.2191 82.4598 27.4302C83.0721 27.6357 83.7306 27.7384 84.4353 27.7384C85.2555 27.7384 85.992 27.6072 86.6447 27.3446C87.2975 27.0764 87.8144 26.7055 88.1957 26.2318C88.5769 25.7524 88.7675 25.1931 88.7675 24.554C88.7675 23.9718 88.6029 23.4982 88.2737 23.1329C87.9444 22.7677 87.5112 22.4709 86.974 22.2426C86.4368 22.0144 85.8563 21.8146 85.2324 21.6434L83.0489 21.0271C81.6626 20.6333 80.5651 20.0712 79.7564 19.3407C78.9477 18.6102 78.5434 17.6543 78.5434 16.473C78.5434 15.4914 78.812 14.6353 79.3492 13.9048C79.8922 13.1686 80.62 12.598 81.5327 12.1928C82.4511 11.7819 83.4764 11.5764 84.6086 11.5764C85.7523 11.5764 86.7689 11.779 87.6585 12.1842C88.548 12.5837 89.2528 13.1316 89.7726 13.8278C90.2983 14.524 90.5755 15.3144 90.6044 16.199H88.5249Z" fill="black"/>
<path d="M94.38 29.3478V11.8161H96.5288V19.6232H105.99V11.8161H108.139V29.3478H105.99V21.5065H96.5288V29.3478H94.38Z" fill="black"/>
<path d="M126.72 17.2948H124.572C124.445 16.6841 124.222 16.1477 123.904 15.6854C123.593 15.2231 123.211 14.8351 122.761 14.5212C122.316 14.2016 121.822 13.9619 121.279 13.8021C120.736 13.6423 120.17 13.5624 119.581 13.5624C118.506 13.5624 117.533 13.8306 116.661 14.3671C115.794 14.9036 115.104 15.694 114.59 16.7383C114.082 17.7827 113.828 19.0639 113.828 20.5819C113.828 22.1 114.082 23.3812 114.59 24.4255C115.104 25.4699 115.794 26.2603 116.661 26.7968C117.533 27.3332 118.506 27.6014 119.581 27.6014C120.17 27.6014 120.736 27.5215 121.279 27.3618C121.822 27.202 122.316 26.9651 122.761 26.6512C123.211 26.3317 123.593 25.9407 123.904 25.4785C124.222 25.0105 124.445 24.4741 124.572 23.8691H126.72C126.559 24.7651 126.264 25.5669 125.837 26.2746C125.409 26.9822 124.878 27.5843 124.242 28.0808C123.607 28.5716 122.894 28.9454 122.102 29.2022C121.317 29.459 120.476 29.5875 119.581 29.5875C118.067 29.5875 116.722 29.2222 115.543 28.4917C114.365 27.7612 113.438 26.7226 112.762 25.3757C112.086 24.0289 111.748 22.431 111.748 20.5819C111.748 18.7329 112.086 17.135 112.762 15.7881C113.438 14.4413 114.365 13.4026 115.543 12.6721C116.722 11.9417 118.067 11.5764 119.581 11.5764C120.476 11.5764 121.317 11.7048 122.102 11.9616C122.894 12.2184 123.607 12.5951 124.242 13.0916C124.878 13.5824 125.409 14.1816 125.837 14.8893C126.264 15.5912 126.559 16.3931 126.72 17.2948Z" fill="black"/>
<path d="M130.921 29.3478H128.668L135.184 11.8161H137.402L143.917 29.3478H141.665L136.362 14.5897H136.223L130.921 29.3478ZM131.752 22.4995H140.833V24.3827H131.752V22.4995Z" fill="black"/>
<path d="M156.386 16.199C156.282 15.3316 155.86 14.6582 155.121 14.1788C154.381 13.6994 153.474 13.4597 152.4 13.4597C151.614 13.4597 150.927 13.5853 150.338 13.8364C149.754 14.0875 149.298 14.4327 148.969 14.8722C148.645 15.3116 148.484 15.811 148.484 16.3702C148.484 16.8382 148.596 17.2405 148.821 17.5772C149.053 17.9082 149.347 18.185 149.705 18.4076C150.063 18.6245 150.439 18.8042 150.832 18.9469C151.224 19.0839 151.585 19.1952 151.915 19.2808L153.717 19.7601C154.179 19.88 154.693 20.0455 155.259 20.2566C155.831 20.4678 156.377 20.756 156.897 21.1212C157.422 21.4808 157.856 21.943 158.197 22.508C158.537 23.073 158.708 23.7664 158.708 24.5882C158.708 25.5355 158.456 26.3916 157.954 27.1563C157.457 27.921 156.729 28.5288 155.77 28.9797C154.817 29.4305 153.659 29.6559 152.296 29.6559C151.025 29.6559 149.925 29.4533 148.995 29.0481C148.071 28.643 147.343 28.078 146.811 27.3532C146.286 26.6284 145.988 25.7866 145.919 24.8279H148.137C148.195 25.4899 148.42 26.0377 148.813 26.4715C149.211 26.8995 149.714 27.2191 150.32 27.4302C150.933 27.6357 151.591 27.7384 152.296 27.7384C153.116 27.7384 153.853 27.6072 154.505 27.3446C155.158 27.0764 155.675 26.7055 156.056 26.2318C156.438 25.7524 156.628 25.1931 156.628 24.554C156.628 23.9718 156.464 23.4982 156.134 23.1329C155.805 22.7677 155.372 22.4709 154.835 22.2426C154.297 22.0144 153.717 21.8146 153.093 21.6434L150.91 21.0271C149.523 20.6333 148.426 20.0712 147.617 19.3407C146.808 18.6102 146.404 17.6543 146.404 16.473C146.404 15.4914 146.673 14.6353 147.21 13.9048C147.753 13.1686 148.481 12.598 149.393 12.1928C150.312 11.7819 151.337 11.5764 152.469 11.5764C153.613 11.5764 154.63 11.779 155.519 12.1842C156.409 12.5837 157.113 13.1316 157.633 13.8278C158.159 14.524 158.436 15.3144 158.465 16.199H156.386Z" fill="black"/>
<path d="M162.241 29.3478V11.8161H164.39V19.6232H173.851V11.8161H176V29.3478H173.851V21.5065H164.39V29.3478H162.241Z" fill="black"/>
<path d="M23.6228 17.9236L26.7477 20.3494L25.9947 21.4154C25.9947 21.4154 25.1124 20.7539 24.7902 20.5149L24.7906 20.5975C24.7906 26.5647 20.2081 31.4614 14.3709 31.96V30.298C19.1794 29.8168 22.9578 25.8409 23.1306 20.9466L22.3924 22.0312L21.3541 21.2594L23.6228 17.9236ZM3.12496 23.285L0 20.8587L0.753051 19.7931C0.753051 19.7931 1.63531 20.4547 1.95752 20.6936L1.95711 20.6111C1.95711 14.6434 6.53961 9.74712 12.3768 9.24858V10.9093C7.56837 11.3913 3.78995 15.3677 3.61711 20.2615L4.35535 19.1774L5.39358 19.9491L3.12496 23.285ZM10.3831 23.791L13.4216 22.3358L10.3645 23.8L9.43865 24.2028L10.3831 23.791ZM6.12893 25.6469L10.1073 25.5738L2.72909 34.4325L9.25553 28.0158L2.72004 34.4416L18.46 22.0267H14.0677L20.5365 15.7041H16.6038L24.0462 6.79135V6.79053L8.2239 19.3709L12.5517 19.3251L6.13634 25.6399L6.11988 25.6473H6.12893V25.6469ZM13.2689 17.4312L13.2685 17.4316L16.5083 15.7536L13.2689 17.4312Z" fill="black"/>
</svg>
