<svg width="176" height="40" viewBox="0 0 176 40" fill="none" xmlns="http://www.w3.org/2000/svg">
<path d="M33.1641 28.4064V10.8747H43.8041V12.758H35.3129V18.6818H43.007V20.565H35.3129V28.4064H33.1641Z" fill="#83F488"/>
<path d="M47.4844 28.4064V10.8747H49.6332V26.5231H57.8818V28.4064H47.4844Z" fill="#83F488"/>
<path d="M63.0567 28.4064H60.804L67.3197 10.8747H69.5378L76.0536 28.4064H73.8008L68.4981 13.6483H68.3594L63.0567 28.4064ZM63.8885 21.5581H72.969V23.4413H63.8885V21.5581Z" fill="#83F488"/>
<path d="M88.5218 15.2576C88.4179 14.3902 87.9962 13.7167 87.2568 13.2374C86.5174 12.758 85.6105 12.5183 84.5361 12.5183C83.7505 12.5183 83.0632 12.6438 82.474 12.8949C81.8906 13.1461 81.4342 13.4913 81.105 13.9308C80.7815 14.3702 80.6198 14.8695 80.6198 15.4288C80.6198 15.8968 80.7324 16.2991 80.9577 16.6358C81.1887 16.9668 81.4833 17.2436 81.8415 17.4662C82.1996 17.6831 82.5751 17.8628 82.9679 18.0055C83.3606 18.1425 83.7217 18.2537 84.0509 18.3394L85.8531 18.8187C86.3153 18.9386 86.8293 19.1041 87.3954 19.3152C87.9673 19.5264 88.5132 19.8146 89.033 20.1798C89.5587 20.5394 89.9919 21.0016 90.3327 21.5666C90.6735 22.1316 90.8439 22.825 90.8439 23.6468C90.8439 24.5941 90.5927 25.4502 90.0901 26.2149C89.5933 26.9796 88.8655 27.5874 87.9066 28.0383C86.9535 28.4891 85.7954 28.7145 84.4322 28.7145C83.1614 28.7145 82.061 28.5119 81.131 28.1067C80.2068 27.7016 79.4789 27.1366 78.9475 26.4118C78.4219 25.687 78.1244 24.8452 78.0551 23.8865H80.2732C80.3309 24.5485 80.5562 25.0963 80.949 25.5301C81.3476 25.9581 81.8501 26.2777 82.4566 26.4888C83.0689 26.6943 83.7274 26.797 84.4322 26.797C85.2524 26.797 85.9889 26.6657 86.6416 26.4032C87.2944 26.135 87.8113 25.7641 88.1926 25.2904C88.5738 24.811 88.7644 24.2517 88.7644 23.6125C88.7644 23.0304 88.5998 22.5568 88.2706 22.1915C87.9413 21.8263 87.5081 21.5295 86.9709 21.3012C86.4337 21.073 85.8531 20.8732 85.2293 20.702L83.0458 20.0857C81.6595 19.6919 80.562 19.1298 79.7533 18.3993C78.9446 17.6688 78.5403 16.7129 78.5403 15.5315C78.5403 14.55 78.8089 13.6939 79.3461 12.9634C79.8891 12.2272 80.6169 11.6565 81.5295 11.2514C82.448 10.8405 83.4733 10.635 84.6054 10.635C85.7492 10.635 86.7658 10.8376 87.6554 11.2428C88.5449 11.6423 89.2496 12.1901 89.7695 12.8864C90.2952 13.5826 90.5724 14.373 90.6013 15.2576H88.5218Z" fill="#83F488"/>
<path d="M94.3769 28.4064V10.8747H96.5257V18.6818H105.987V10.8747H108.136V28.4064H105.987V20.565H96.5257V28.4064H94.3769Z" fill="#83F488"/>
<path d="M126.717 16.3533H124.568C124.441 15.7427 124.219 15.2063 123.901 14.744C123.589 14.2817 123.208 13.8937 122.758 13.5798C122.313 13.2602 121.819 13.0205 121.276 12.8607C120.733 12.7009 120.167 12.621 119.578 12.621C118.503 12.621 117.53 12.8892 116.658 13.4257C115.791 13.9621 115.101 14.7526 114.587 15.7969C114.079 16.8413 113.824 18.1225 113.824 19.6405C113.824 21.1586 114.079 22.4398 114.587 23.4841C115.101 24.5285 115.791 25.3189 116.658 25.8554C117.53 26.3918 118.503 26.66 119.578 26.66C120.167 26.66 120.733 26.5801 121.276 26.4203C121.819 26.2606 122.313 26.0237 122.758 25.7098C123.208 25.3903 123.589 24.9993 123.901 24.5371C124.219 24.0691 124.441 23.5326 124.568 22.9277H126.717C126.556 23.8237 126.261 24.6255 125.834 25.3332C125.406 26.0408 124.875 26.6429 124.239 27.1394C123.604 27.6302 122.89 28.004 122.099 28.2608C121.314 28.5176 120.473 28.646 119.578 28.646C118.064 28.646 116.718 28.2808 115.54 27.5503C114.362 26.8198 113.435 25.7812 112.759 24.4343C112.083 23.0875 111.745 21.4896 111.745 19.6405C111.745 17.7915 112.083 16.1935 112.759 14.8467C113.435 13.4999 114.362 12.4612 115.54 11.7307C116.718 11.0003 118.064 10.635 119.578 10.635C120.473 10.635 121.314 10.7634 122.099 11.0202C122.89 11.277 123.604 11.6537 124.239 12.1502C124.875 12.641 125.406 13.2402 125.834 13.9479C126.261 14.6498 126.556 15.4516 126.717 16.3533Z" fill="#83F488"/>
<path d="M130.917 28.4064H128.665L135.18 10.8747H137.399L143.914 28.4064H141.661L136.359 13.6483H136.22L130.917 28.4064ZM131.749 21.5581H140.83V23.4413H131.749V21.5581Z" fill="#83F488"/>
<path d="M156.383 15.2576C156.279 14.3902 155.857 13.7167 155.117 13.2374C154.378 12.758 153.471 12.5183 152.397 12.5183C151.611 12.5183 150.924 12.6438 150.335 12.8949C149.751 13.1461 149.295 13.4913 148.966 13.9308C148.642 14.3702 148.48 14.8695 148.48 15.4288C148.48 15.8968 148.593 16.2991 148.818 16.6358C149.049 16.9668 149.344 17.2436 149.702 17.4662C150.06 17.6831 150.436 17.8628 150.829 18.0055C151.221 18.1425 151.582 18.2537 151.912 18.3394L153.714 18.8187C154.176 18.9386 154.69 19.1041 155.256 19.3152C155.828 19.5264 156.374 19.8146 156.894 20.1798C157.419 20.5394 157.853 21.0016 158.193 21.5666C158.534 22.1316 158.705 22.825 158.705 23.6468C158.705 24.5941 158.453 25.4502 157.951 26.2149C157.454 26.9796 156.726 27.5874 155.767 28.0383C154.814 28.4891 153.656 28.7145 152.293 28.7145C151.022 28.7145 149.922 28.5119 148.992 28.1067C148.067 27.7016 147.34 27.1366 146.808 26.4118C146.283 25.687 145.985 24.8452 145.916 23.8865H148.134C148.192 24.5485 148.417 25.0963 148.81 25.5301C149.208 25.9581 149.711 26.2777 150.317 26.4888C150.93 26.6943 151.588 26.797 152.293 26.797C153.113 26.797 153.85 26.6657 154.502 26.4032C155.155 26.135 155.672 25.7641 156.053 25.2904C156.435 24.811 156.625 24.2517 156.625 23.6125C156.625 23.0304 156.461 22.5568 156.131 22.1915C155.802 21.8263 155.369 21.5295 154.832 21.3012C154.294 21.073 153.714 20.8732 153.09 20.702L150.907 20.0857C149.52 19.6919 148.423 19.1298 147.614 18.3993C146.805 17.6688 146.401 16.7129 146.401 15.5315C146.401 14.55 146.67 13.6939 147.207 12.9634C147.75 12.2272 148.478 11.6565 149.39 11.2514C150.309 10.8405 151.334 10.635 152.466 10.635C153.61 10.635 154.627 10.8376 155.516 11.2428C156.406 11.6423 157.11 12.1901 157.63 12.8864C158.156 13.5826 158.433 14.373 158.462 15.2576H156.383Z" fill="#83F488"/>
<path d="M162.238 28.4064V10.8747H164.386V18.6818H173.848V10.8747H175.997V28.4064H173.848V20.565H164.386V28.4064H162.238Z" fill="#83F488"/>
<path d="M23.6228 16.9822L26.7477 19.408L25.9947 20.474C25.9947 20.474 25.1124 19.8125 24.7902 19.5735L24.7906 19.6561C24.7906 25.6233 20.2081 30.52 14.3709 31.0186V29.3566C19.1794 28.8754 22.9578 24.8994 23.1306 20.0052L22.3924 21.0898L21.3541 20.318L23.6228 16.9822ZM3.12496 22.3436L0 19.9173L0.753051 18.8517C0.753051 18.8517 1.63531 19.5133 1.95752 19.7522L1.95711 19.6697C1.95711 13.702 6.53961 8.80572 12.3768 8.30717V9.96789C7.56837 10.4499 3.78995 14.4263 3.61711 19.3201L4.35535 18.236L5.39358 19.0077L3.12496 22.3436ZM10.3831 22.8496L13.4216 21.3944L10.3645 22.8586L9.43865 23.2614L10.3831 22.8496ZM6.12893 24.7055L10.1073 24.6324L2.72909 33.4911L9.25553 27.0744L2.72004 33.5002L18.46 21.0853H14.0677L20.5365 14.7627H16.6038L24.0462 5.84995V5.84912L8.2239 18.4295L12.5517 18.3837L6.13634 24.6985L6.11988 24.7059H6.12893V24.7055ZM13.2689 16.4898L13.2685 16.4902L16.5083 14.8122L13.2689 16.4898Z" fill="#83F488"/>
</svg>
