<svg width="176" height="20" viewBox="0 0 176 20" fill="none" xmlns="http://www.w3.org/2000/svg">
<path d="M167.901 4.02832C166.792 4.02832 165.911 4.38032 165.259 5.11632C164.607 5.82032 164.281 6.78032 164.281 8.02832C164.281 9.24432 164.607 10.2043 165.259 10.9083C165.911 11.6123 166.792 11.9963 167.901 11.9963C169.01 11.9963 169.891 11.6443 170.543 10.9083C171.195 10.2043 171.521 9.21232 171.521 8.02832C171.521 6.78032 171.195 5.82032 170.543 5.11632C169.891 4.38032 169.043 4.02832 167.901 4.02832ZM167.901 0.0283203C169.401 0.0283203 170.771 0.38032 171.978 1.05232C173.217 1.72432 174.196 2.68432 174.881 3.90032C175.598 5.11632 175.957 6.49232 175.957 8.02832C175.957 9.56432 175.598 10.9403 174.881 12.1563C174.163 13.3723 173.185 14.3323 171.945 15.0043C170.706 15.6763 169.369 16.0283 167.868 16.0283C166.401 16.0283 165.031 15.6763 163.791 15.0043C162.552 14.3003 161.574 13.3723 160.856 12.1563C160.138 10.9403 159.78 9.56432 159.78 8.02832C159.78 6.49232 160.138 5.11632 160.856 3.90032C161.574 2.68432 162.552 1.72432 163.791 1.05232C165.063 0.38032 166.433 0.0283203 167.901 0.0283203ZM158.018 0.28432V15.8683H153.583V0.28432H158.018ZM151.952 11.6443V15.8683H147.484V11.6443H151.952ZM137.634 11.9963C138.938 11.9963 139.949 11.6443 140.7 10.9723C141.45 10.2683 141.808 9.30832 141.808 8.02832C141.808 6.78032 141.45 5.82032 140.7 5.11632C139.949 4.41232 138.938 4.06032 137.634 4.06032H136.133V11.9963H137.634ZM146.277 8.02832C146.277 9.53232 145.951 10.8763 145.266 12.0923C144.581 13.2763 143.635 14.2043 142.396 14.8763C141.156 15.5483 139.688 15.9003 138.025 15.9003H131.698V0.28432H138.025C139.688 0.28432 141.156 0.60432 142.396 1.27632C143.668 1.91632 144.613 2.84432 145.266 3.99632C145.951 5.18032 146.277 6.52432 146.277 8.02832ZM121.685 7.19632H123.87C125.109 7.19632 125.696 6.65232 125.696 5.56432C125.696 5.05232 125.533 4.63632 125.24 4.34832C124.946 4.06032 124.49 3.90032 123.87 3.90032H121.685V7.19632ZM125.338 15.8683L122.141 10.1083H121.685V15.8683H117.249V0.28432H124.229C125.501 0.28432 126.577 0.50832 127.458 0.95632C128.371 1.37232 129.023 1.98032 129.48 2.74832C129.936 3.51632 130.165 4.38032 130.165 5.34032C130.165 6.42832 129.871 7.38832 129.251 8.18832C128.632 8.98832 127.751 9.53232 126.61 9.85232L130.23 15.9003H125.338V15.8683ZM109.519 10.0123L107.823 4.95632L106.094 10.0123H109.519ZM110.628 13.2763H104.985L104.105 15.8683H99.4733L105.279 0.34832H110.367L116.173 15.8683H111.509L110.628 13.2763ZM91.189 0.12432C92.5588 0.12432 93.7656 0.38032 94.8093 0.86032C95.8856 1.34032 96.7662 2.04432 97.4512 2.94032C98.1361 3.83632 98.5927 4.89232 98.821 6.07632H94.1896C93.9287 5.46832 93.5373 4.98832 93.0154 4.63632C92.461 4.28432 91.8413 4.09232 91.1563 4.09232C90.1779 4.09232 89.3951 4.44432 88.808 5.18032C88.2209 5.88432 87.8948 6.84432 87.8948 8.02832C87.8948 9.21232 88.1883 10.1723 88.808 10.8763C89.3951 11.5803 90.1779 11.9643 91.1563 11.9643C91.8739 11.9643 92.4936 11.7723 93.0154 11.4203C93.5373 11.0683 93.9613 10.5883 94.1896 9.98032H98.821C98.4623 11.8043 97.6143 13.2443 96.277 14.3323C94.9398 15.3883 93.2438 15.9323 91.189 15.9323C89.6234 15.9323 88.2536 15.6123 87.0468 14.9403C85.8726 14.2683 84.9594 13.3403 84.3397 12.1243C83.72 10.9083 83.3938 9.53232 83.3938 7.99632C83.3938 6.46032 83.72 5.08432 84.3397 3.86832C84.992 2.65232 85.8726 1.72432 87.0468 1.08432C88.2536 0.44432 89.6234 0.12432 91.189 0.12432ZM81.6326 15.8683H77.1969L71.3587 7.16432V15.8683H66.9229V0.28432H71.3587L77.1969 9.08432V0.28432H81.6326V15.8683ZM64.7377 0.28432V15.8683H60.3019V0.28432H64.7377ZM52.572 10.0123L50.876 4.95632L49.1474 10.0123H52.572ZM53.681 13.2763H48.0385L47.1578 15.8683H42.5264L48.332 0.34832H53.42L59.2256 15.8683H54.5616L53.681 13.2763ZM41.4175 0.34832V15.8683H37.047V7.06832L34.1116 15.8683H30.3282L27.3928 7.06832V15.8683H22.957V0.34832H28.3712L32.2851 10.4283L36.0685 0.34832H41.4175Z" fill="white"/>
<rect opacity="0.5" x="0.957031" y="3.02832" width="11" height="16" rx="1" fill="#A9C0FF"/>
<rect opacity="0.5" x="3.95703" y="0.0283203" width="11" height="16" rx="1" fill="#A9C0FF"/>
</svg>
